<svg width="4522" height="1099" viewBox="0 0 4522 1099" fill="none" xmlns="http://www.w3.org/2000/svg">
<path d="M1654.48 288.906L1516.59 860H1444.72L1308.39 288.906H1373.23L1461.91 683.438C1464.51 694.375 1466.85 705.964 1468.94 718.203C1471.28 730.182 1473.36 742.292 1475.19 754.531C1477.27 766.51 1479.09 778.099 1480.66 789.297C1482.22 778.099 1483.91 766.51 1485.73 754.531C1487.82 742.552 1490.03 730.443 1492.38 718.203C1494.98 705.964 1497.58 693.984 1500.19 682.266L1589.64 288.906H1654.48ZM1713.47 860V288.906H1775.58V860H1713.47ZM2131.05 704.141C2131.05 736.432 2124.8 764.948 2112.3 789.688C2100.06 814.167 2082.74 833.307 2060.34 847.109C2038.21 860.911 2012.04 867.812 1981.83 867.812C1966.98 867.812 1952.66 866.901 1938.86 865.078C1925.06 863.516 1911.91 860.911 1899.41 857.266C1887.17 853.62 1875.45 849.062 1864.25 843.594V779.141C1881.96 789.036 1901.1 796.589 1921.67 801.797C1942.51 807.005 1961.78 809.609 1979.48 809.609C1998.49 809.609 2014.51 805.182 2027.53 796.328C2040.55 787.214 2050.45 775.104 2057.22 760C2064.25 744.896 2067.77 728.229 2067.77 710C2067.77 690.729 2064.9 674.583 2059.17 661.562C2053.44 648.281 2044.07 636.302 2031.05 625.625C2018.03 614.948 2000.45 603.88 1978.31 592.422C1961.65 583.307 1946.54 573.932 1933 564.297C1919.46 554.661 1907.87 543.854 1898.23 531.875C1888.6 519.635 1881.18 505.312 1875.97 488.906C1870.76 472.5 1868.16 452.969 1868.16 430.312C1867.64 400.365 1873.49 374.193 1885.73 351.797C1898.23 329.141 1915.42 311.562 1937.3 299.062C1959.43 286.562 1984.69 280.443 2013.08 280.703C2034.69 280.703 2055.27 283.438 2074.8 288.906C2094.59 294.115 2111.65 300.495 2125.97 308.047L2105.66 365.078C2089.77 356.484 2074.02 350.104 2058.39 345.938C2043.03 341.51 2028.31 339.297 2014.25 339.297C1996.8 339.297 1981.83 343.073 1969.33 350.625C1957.09 358.177 1947.58 368.594 1940.81 381.875C1934.3 394.896 1931.05 410.13 1931.05 427.578C1931.05 447.63 1933.91 464.167 1939.64 477.188C1945.63 490.208 1955.14 501.797 1968.16 511.953C1981.44 522.109 1998.89 533.047 2020.5 544.766C2045.24 557.786 2065.81 571.849 2082.22 586.953C2098.62 601.797 2110.86 618.724 2118.94 637.734C2127.01 656.745 2131.05 678.88 2131.05 704.141ZM2522.84 288.906V681.484C2522.84 724.974 2516.98 760.521 2505.27 788.125C2493.55 815.469 2476.36 835.651 2453.7 848.672C2431.31 861.432 2403.57 867.812 2370.5 867.812C2320.24 867.812 2281.96 852.708 2255.66 822.5C2229.35 792.292 2216.2 745.417 2216.2 681.875V288.906H2278.31V682.266C2278.31 728.099 2286.26 761.042 2302.14 781.094C2318.29 801.146 2341.07 811.172 2370.5 811.172C2390.03 811.172 2406.44 806.875 2419.72 798.281C2433 789.688 2443.03 775.885 2449.8 756.875C2456.57 737.865 2459.95 712.734 2459.95 681.484V288.906H2522.84ZM2865.03 860L2822.06 676.406H2686.52L2643.55 860H2577.14L2715.03 288.906H2790.42L2931.05 860H2865.03ZM2810.34 618.984L2766.59 425.234C2764.77 415.599 2762.95 406.224 2761.12 397.109C2759.56 387.734 2758 378.75 2756.44 370.156C2755.14 361.302 2753.83 352.708 2752.53 344.375C2751.75 352.708 2750.71 361.302 2749.41 370.156C2748.1 379.01 2746.54 387.995 2744.72 397.109C2742.9 405.964 2740.94 415.078 2738.86 424.453L2696.28 618.984H2810.34ZM2990.03 860V288.906H3052.14V803.359H3211.52V860H2990.03ZM4156.83 704.141C4156.83 736.432 4150.58 764.948 4138.08 789.688C4125.84 814.167 4108.52 833.307 4086.12 847.109C4063.99 860.911 4037.82 867.812 4007.61 867.812C3992.77 867.812 3978.44 866.901 3964.64 865.078C3950.84 863.516 3937.69 860.911 3925.19 857.266C3912.95 853.62 3901.23 849.062 3890.03 843.594V779.141C3907.74 789.036 3926.88 796.589 3947.45 801.797C3968.29 807.005 3987.56 809.609 4005.27 809.609C4024.28 809.609 4040.29 805.182 4053.31 796.328C4066.33 787.214 4076.23 775.104 4083 760C4090.03 744.896 4093.55 728.229 4093.55 710C4093.55 690.729 4090.68 674.583 4084.95 661.562C4079.22 648.281 4069.85 636.302 4056.83 625.625C4043.81 614.948 4026.23 603.88 4004.09 592.422C3987.43 583.307 3972.32 573.932 3958.78 564.297C3945.24 554.661 3933.65 543.854 3924.02 531.875C3914.38 519.635 3906.96 505.312 3901.75 488.906C3896.54 472.5 3893.94 452.969 3893.94 430.312C3893.42 400.365 3899.28 374.193 3911.52 351.797C3924.02 329.141 3941.2 311.562 3963.08 299.062C3985.21 286.562 4010.47 280.443 4038.86 280.703C4060.47 280.703 4081.05 283.438 4100.58 288.906C4120.37 294.115 4137.43 300.495 4151.75 308.047L4131.44 365.078C4115.55 356.484 4099.8 350.104 4084.17 345.938C4068.81 341.51 4054.09 339.297 4040.03 339.297C4022.58 339.297 4007.61 343.073 3995.11 350.625C3982.87 358.177 3973.36 368.594 3966.59 381.875C3960.08 394.896 3956.83 410.13 3956.83 427.578C3956.83 447.63 3959.69 464.167 3965.42 477.188C3971.41 490.208 3980.92 501.797 3993.94 511.953C4007.22 522.109 4024.67 533.047 4046.28 544.766C4071.02 557.786 4091.59 571.849 4108 586.953C4124.41 601.797 4136.65 618.724 4144.72 637.734C4152.79 656.745 4156.83 678.88 4156.83 704.141ZM4471.67 860H4247.06V288.906H4471.67V344.375H4309.17V533.828H4461.91V589.688H4309.17V803.359H4471.67V860Z" fill="white"/>
<path d="M3529.48 860L3499.8 722.5H3372.84L3343.16 860H3225.58L3363.86 288.906H3505.66L3646.28 860H3529.48ZM3483 627.188L3452.14 476.016C3450.06 463.516 3447.97 451.276 3445.89 439.297C3444.07 427.318 3442.24 415.859 3440.42 404.922C3438.86 393.724 3437.43 383.307 3436.12 373.672C3435.34 382.786 3434.17 392.812 3432.61 403.75C3431.05 414.688 3429.22 426.146 3427.14 438.125C3425.06 450.104 3422.71 462.214 3420.11 474.453L3389.64 627.188H3483ZM3697.84 860V288.906H3807.61V860H3697.84Z" fill="url(#paint0_linear_165_245)"/>
<mask id="mask0_165_245" style="mask-type:luminance" maskUnits="userSpaceOnUse" x="0" y="44" width="1024" height="1011">
<path d="M1024 44H0V1055H1024V44Z" fill="white"/>
</mask>
<g mask="url(#mask0_165_245)">
<path fill-rule="evenodd" clip-rule="evenodd" d="M505.786 54.4864L511.92 44L518.053 54.4864L542.319 95.9748L572.044 57.7519L579.55 48.1013L584.239 59.3178L602.38 102.708L635.712 69.8054L644.413 61.2166L647.598 72.949L660.049 118.818L698.792 89.4348L708.549 82.0347L710.132 94.0581L716.323 141.074L757.237 117.757L767.876 111.693V123.821V170.914L812.773 152.488L824.147 147.821L822.522 159.868L816.124 207.281L862.01 195.145L873.897 192.001L870.711 203.734L858.461 248.862L906.309 242.565L918.471 240.964L913.714 252.268L895.035 296.656H942.986H955.253L949.061 307.242L925.531 347.473L972.89 353.553L985.084 355.119L977.579 364.771L947.821 403.035L994.507 415.383L1006.39 418.527L997.693 427.116L964.338 460.04L1008.06 477.864L1019.45 482.509L1009.7 489.909L971.044 519.225L1013.14 543.217L1023.83 549.309L1013.2 555.373L972.12 578.782L1009.49 607.073L1019.24 614.453L1007.86 619.12L963.191 637.454L997.691 671.508L1006.39 680.097L994.506 683.241L948.34 695.451L976.925 732.27L984.446 741.957L972.284 743.558L924.747 749.815L949.061 791.385L955.253 801.972H942.986H894.726L912.763 845.114L917.452 856.331L905.258 854.765L858.181 848.72L870.715 894.892L873.9 906.623L862.013 903.48L815.09 891.069L821.231 937.695L822.822 949.777L811.481 945.154L767.876 927.376V974.738V986.923L757.237 980.859L714.987 956.781L708.629 1003.89L707.004 1015.94L697.256 1008.56L659.915 980.291L647.595 1025.68L644.409 1037.41L635.709 1028.82L601.248 994.803L582.605 1039.1L577.894 1050.3L570.443 1040.7L541.71 1003.69L518.053 1044.14L511.92 1054.63L505.786 1044.14L481.514 1002.64L451.788 1040.87L444.283 1050.52L439.594 1039.3L421.456 995.918L388.126 1028.82L379.425 1037.41L376.24 1025.68L363.786 979.793L325.04 1009.18L315.283 1016.58L313.691 1004.5L307.508 957.546L266.598 980.861L255.959 986.925V974.739V927.704L211.058 946.131L199.685 950.798L201.311 938.751L207.708 891.343L161.823 903.479L149.937 906.623L153.121 894.89L165.372 849.76L117.526 856.056L105.364 857.657L110.121 846.354L128.797 801.972H80.8526H68.5857L74.7776 791.385L98.3119 751.147L50.9431 745.066L38.7486 743.5L46.2537 733.849L76.0092 695.587L29.3302 683.241L17.4445 680.098L26.1455 671.509L59.5052 638.579L15.7186 620.727L4.37811 616.104L14.1816 608.67L52.7852 579.391L10.6398 555.372L0 549.308L10.6904 543.216L51.7124 519.837L14.3435 491.546L4.59562 484.166L15.9692 479.499L60.6377 461.166L26.1424 427.116L17.4414 418.527L29.3271 415.383L75.496 403.173L46.9102 366.351L39.3892 356.664L51.551 355.063L99.0885 348.806L74.7776 307.242L68.5857 296.656H80.8526H129.11L111.07 253.506L106.381 242.289L118.574 243.855L165.655 249.9L153.123 203.734L149.938 192.001L161.824 195.145L208.741 207.554L202.593 160.861L201.009 148.838L212.35 153.461L255.959 171.24V123.823V111.695L266.598 117.759L308.846 141.836L315.202 94.7265L316.828 82.6789L326.577 90.0587L363.919 118.33L376.239 72.9488L379.423 61.2164L388.125 69.8051L422.586 103.822L441.23 59.5181L445.941 48.3211L453.392 57.9174L482.128 94.9333L505.786 54.4864ZM110.479 347.307L148.21 342.341L133.536 307.242H87.0446L110.479 347.307ZM159.148 340.902L189.281 336.936L181.22 307.242H145.075L159.148 340.902ZM199.933 335.534L225.158 332.214L221.87 307.242H192.254L199.933 335.534ZM235.707 330.825L255.959 328.16V307.242H232.602L235.707 330.825ZM266.598 326.76L284.205 324.443L286.526 307.242H266.598V326.76ZM295.143 323.003L308.851 321.199L312.64 307.242H297.269L295.143 323.003ZM320.292 319.693L332.417 318.097L336.985 307.242H323.672L320.292 319.693ZM344.579 316.497L353.202 315.362L357.95 307.242H348.472L344.579 316.497ZM366.491 313.612L373.815 312.649L378.019 307.242H370.217L366.491 313.612ZM388.757 310.682L392.138 310.237L395.172 307.242H391.432L388.757 310.682ZM409.527 307.948L410.924 307.764L411.612 307.242H410.243L409.527 307.948ZM546.926 289.865L547.238 289.823L546.599 289.459L546.194 289.566L546.926 289.865ZM564.526 287.548L569.101 286.946L565.735 284.398L561.133 285.615L564.526 287.548ZM584.043 284.98L590.217 284.167L585.228 279.242L578.733 280.959L584.043 284.98ZM603.514 282.417L613.279 281.132L607.283 273.408L597.114 276.098L603.514 282.417ZM625.441 279.531L636.557 278.068L630.276 267.327L618.404 270.467L625.441 279.531ZM647.947 276.569L662.714 274.626L656.738 260.329L640.899 264.518L647.947 276.569ZM673.652 273.186L690.324 270.991L685.374 252.754L667.128 257.58L673.652 273.186ZM700.976 269.59L722.149 266.803L719.123 243.828L695.667 250.031L700.976 269.59ZM732.698 265.414L757.237 262.184V233.747L729.494 241.085L732.698 265.414ZM767.876 260.785L798.707 256.727L803.459 221.522L767.876 230.932V260.785ZM809.646 255.287L847.021 250.368L858.826 206.877L814.6 218.575L809.646 255.287ZM82.5103 412.207L38.0281 423.973L71.2825 456.798L106.05 442.529L82.5103 412.207ZM112.751 451.16L79.426 464.836L104.607 489.692L130.992 474.655L112.751 451.16ZM137.519 483.063L112.395 497.381L133.478 518.191L153.186 503.243L137.519 483.063ZM159.648 511.567L141.054 525.669L157.473 541.876L172.026 527.51L159.648 511.567ZM178.564 535.933L165.008 549.314L179.013 563.138L189.358 549.836L178.564 535.933ZM196.058 558.467L186.6 570.628L197.566 581.453L204.586 569.45L196.058 558.467ZM211.581 578.462L205.343 589.129L214.542 598.21L218.89 587.877L211.581 578.462ZM226.341 597.472L222.659 606.222L229.617 613.09L231.909 604.646L226.341 597.472ZM240.083 615.174L238.318 621.679L243.417 626.712L244.25 620.541L240.083 615.174ZM253.402 632.33L252.898 636.07L255.959 639.092V635.622L253.402 632.33ZM266.598 649.328V649.594L267.008 649.998L266.984 649.825L266.598 649.328ZM350.291 757.13L350.148 757.072L350.24 757.229L350.401 757.272L350.291 757.13ZM361.04 770.976L357.775 770.112L360.139 774.154L363.88 774.634L361.04 770.976ZM373.033 786.423L366.851 785.629L370.217 791.385H376.885L373.033 786.423ZM385.103 801.972H376.409L381.479 810.639L390.873 809.403L385.103 801.972ZM398.394 819.091L387.277 820.554L393.561 831.296L405.432 828.157L398.394 819.091ZM412.446 837.191L399.077 840.727L407.03 854.323L421.224 848.498L412.446 837.191ZM427.925 857.129L412.398 863.501L422.085 880.064L438.477 870.722L427.925 857.129ZM445.035 879.17L427.431 889.202L439.193 909.313L457.6 895.353L445.035 879.17ZM464.093 903.716L444.577 918.518L459.298 943.688L479.581 923.667L464.093 903.716ZM486.12 932.089L464.814 953.12L482.758 983.797L504.53 955.802L486.12 932.089ZM511.23 964.432L488.516 993.64L511.92 1033.65L534.714 994.682L511.23 964.432ZM605.67 984.293L638.893 1017.09L650.763 973.362L620.054 950.113L605.67 984.293ZM624.292 940.042L653.753 962.347L663.265 927.305L636.154 911.854L624.292 940.042ZM640.289 902.026L666.129 916.752L673.671 888.97L649.867 879.265L640.289 902.026ZM653.974 869.506L676.466 878.676L682.613 856.03L661.946 850.563L653.974 869.506ZM666.069 840.763L685.37 845.869L690.444 827.181L672.742 824.908L666.069 840.763ZM676.978 814.838L693.228 816.924L697.287 801.972H682.394L676.978 814.838ZM686.848 791.385H700.161L703.542 778.928L691.418 780.525L686.848 791.385ZM696.175 769.221L706.547 767.855L709.019 758.75L699.524 761.262L696.175 769.221ZM704.681 749.008L712.204 747.018L714.208 739.638L707.458 742.407L704.681 749.008ZM713.247 728.651L717.684 726.83L718.662 723.229L714.54 725.578L713.247 728.651ZM721.286 709.548L722.574 708.815L722.964 707.378L721.841 708.231L721.286 709.548ZM774.525 583.031L774.702 584.373L775.173 583.567L774.83 582.306L774.525 583.031ZM781.537 566.369L782.709 570.684L784.913 566.914L783.116 562.616L781.537 566.369ZM788.906 548.86L791.643 555.407L795.207 549.314L791.431 542.857L788.906 548.86ZM796.564 530.659L801.341 538.827L806.497 530.012L800.232 521.943L796.564 530.659ZM804.944 510.745L812.257 520.165L818.495 509.499L809.291 500.415L804.944 510.745ZM813.714 489.905L824.011 500.069L832.174 486.112L819.384 476.429L813.714 489.905ZM823.622 466.359L837.557 476.908L847.046 460.684L830.08 451.015L823.622 466.359ZM834.196 441.234L852.366 451.59L864.561 430.74L842.411 421.71L834.196 441.234ZM846.499 411.998L869.935 421.552L884.233 397.107L855.916 389.617L846.499 411.998ZM860.039 379.818L889.749 387.675L908.346 355.88L872.073 351.222L860.039 379.818ZM876.31 341.152L914.121 346.007L936.794 307.242H890.58L876.31 341.152ZM985.807 423.972L953.673 455.692L918.137 441.204L940.797 412.068L985.807 423.972ZM945.515 463.744L911.419 449.843L892.343 474.373L919.227 489.693L945.515 463.744ZM929.672 409.126L907.954 437.052L879.839 425.591L894.856 399.916L929.672 409.126ZM901.235 445.691L874.466 434.777L861.566 456.833L883.05 469.076L901.235 445.691ZM845.578 386.883L836.692 407.999L817.399 400.134L822.643 380.817L845.578 386.883ZM849.702 377.084L861.173 349.823L832.069 346.086L825.4 370.656L849.702 377.084ZM865.411 339.753L879.092 307.242H842.614L834.854 335.83L865.411 339.753ZM883.547 296.656L901.552 253.869L855.455 259.936L845.487 296.656H883.547ZM844.014 261.441L808.179 266.157L804.063 296.656H834.455L844.014 261.441ZM797.241 267.597L767.876 271.462V296.656H793.319L797.241 267.597ZM757.237 272.863L734.08 275.911L736.812 296.656H757.237V272.863ZM723.532 277.299L703.774 279.899L708.323 296.656H726.081L723.532 277.299ZM693.123 281.301L677.884 283.306L683.464 296.656H697.291L693.123 281.301ZM666.946 284.746L653.746 286.483L659.696 296.656H671.925L666.946 284.746ZM642.356 287.982L632.962 289.219L638.736 296.656H647.43L642.356 287.982ZM620.8 290.82L613.059 291.838L617.94 296.656H625.331L620.8 290.82ZM599.762 293.589L596.058 294.076L599.466 296.656H602.869L599.762 293.589ZM581.116 296.043L579.746 296.223L580.506 296.656H581.926L581.116 296.043ZM496.022 307.242L462.866 311.606L434.532 319.1L401.269 332.751L377.722 346.172L347.866 368.815L329.282 387.159L305.855 417.282L292.708 439.76L278.598 473.291L271.172 500.649L266.598 534.539V565.4L270.62 595.937L279.593 628.993L290.514 655.116L308.896 686.545L324.852 707.096L352.018 733.912L372.466 749.392L405.421 768.175L430.913 778.567L465.265 787.652L494.33 791.385H527.773L560.989 787.013L589.262 779.535L622.204 766.015L646.05 752.426L676.315 729.471L694.517 711.506L718.019 681.284L731.11 658.903L745.235 625.337L752.658 597.989L757.237 564.058V533.241L753.208 502.651L744.25 469.65L733.315 443.495L714.94 412.079L698.999 391.546L671.796 364.693L651.044 348.982L618.419 330.389L593.358 320.172L558.54 310.963L529.563 307.242H496.022ZM777.032 549.774L777.391 548.92L777.16 548.367L776.906 549.306L777.032 549.774ZM783.18 535.164L784.75 531.433L782.706 527.939L781.703 531.632L783.18 535.164ZM789.883 519.237L792.783 512.346L788.452 506.769L786.594 513.614L789.883 519.237ZM797.494 501.149L801.175 492.403L794.216 485.535L791.925 493.975L797.494 501.149ZM805.597 481.893L810.672 469.833L800.557 462.175L797.401 473.802L805.597 481.893ZM814.91 459.762L820.813 445.734L807.135 437.94L803.547 451.16L814.91 459.762ZM824.929 435.953L832.605 417.711L814.618 410.378L809.987 427.438L824.929 435.953ZM699.428 734.19L699.298 734.264L699.212 734.411L699.36 734.35L699.428 734.19ZM693.572 748.106L690.453 749.386L688.111 753.39L691.754 752.426L693.572 748.106ZM686.597 764.68L680.576 766.273L677.407 771.69L684.013 770.821L686.597 764.68ZM679.256 782.125L670.641 783.259L665.888 791.385H675.359L679.256 782.125ZM670.905 801.972H659.696L653.904 811.875L666.08 813.438L670.905 801.972ZM661.842 823.509L648.13 821.748L640.9 834.107L655.731 838.03L661.842 823.509ZM651.607 847.829L635.384 843.538L626.7 858.386L644.168 865.509L651.607 847.829ZM640.061 875.266L621.3 867.618L610.953 885.308L631.023 896.745L640.061 875.266ZM626.887 906.573L605.609 894.446L592.858 916.245L615.579 933.447L626.887 906.573ZM611.341 943.517L587.475 925.448L572.315 951.368L597.553 976.281L611.341 943.517ZM593.131 986.791L566.799 960.798L547.469 993.846L575.156 1029.51L593.131 986.791ZM540.474 984.835L559.022 953.122L536.961 931.346L517.939 955.807L540.474 984.835ZM511.238 947.177L529.374 923.856L511.917 906.624L493.709 924.598L511.238 947.177ZM487.171 916.175L504.382 899.186L489.471 884.468L472.53 897.317L487.171 916.175ZM466.038 888.955L481.859 876.954L469.803 865.054L454.329 873.873L466.038 888.955ZM447.771 865.425L461.978 857.329L451.834 847.316L438.09 852.957L447.771 865.425ZM431.39 844.326L443.691 839.278L435.42 831.115L423.567 834.25L431.39 844.326ZM416.553 825.215L426.72 822.526L420.317 816.205L410.556 817.49L416.553 825.215ZM403.035 807.803L410.771 806.784L405.896 801.972H398.508L403.035 807.803ZM390.289 791.385H395.171L392.705 788.949L387.922 788.335L390.289 791.385ZM378.769 776.546L380.343 776.749L379.421 775.838L377.909 775.438L378.769 776.546ZM255.959 618.356V617.008L255.562 616.33L255.388 617.62L255.959 618.356ZM246.234 605.831L246.832 601.405L244.775 597.889L243.556 602.381L246.234 605.831ZM235.382 591.852L237.241 585.006L233.953 579.384L231.052 586.276L235.382 591.852ZM223.603 576.68L227.271 567.962L222.497 559.8L217.342 568.615L223.603 576.68ZM210.346 559.603L216.364 549.314L210.704 539.636L202.767 549.841L210.346 559.603ZM196.066 541.21L204.946 529.792L197.566 517.176L186.153 528.442L196.066 541.21ZM179.615 520.019L192.05 507.744L183.642 493.369L168.084 505.167L179.615 520.019ZM161.623 496.844L178.284 484.207L167.591 465.925L146.812 477.767L161.623 496.844ZM140.285 469.359L162.271 456.83L150.01 435.868L122.917 446.988L140.285 469.359ZM116.216 438.357L144.642 426.691L128.982 399.915L93.6313 409.265L116.216 438.357ZM86.6171 400.231L123.466 390.485L104.887 358.721L59.0722 364.751L86.6171 400.231ZM116.277 357.222L134.089 387.674L163.87 379.798L152.442 352.462L116.277 357.222ZM163.379 351.022L174.261 377.05L198.435 370.656L192.08 347.245L163.379 351.022ZM202.732 345.843L208.728 367.934L229.15 362.532L226.54 342.71L202.732 345.843ZM237.089 341.322L239.522 359.789L255.959 355.441V338.838L237.089 341.322ZM266.598 337.438V352.627L280.913 348.841L282.738 335.313L266.598 337.438ZM293.676 333.873L292.054 345.894L302.928 343.018L305.846 332.273L293.676 333.873ZM317.286 330.766L314.814 339.875L324.309 337.363L327.66 329.401L317.286 330.766ZM339.822 327.8L337.237 333.944L343.266 332.349L346.435 326.93L339.822 327.8ZM359.725 325.181L357.777 328.511L362.438 327.278L364.564 324.544L359.725 325.181ZM379.506 322.578L379.323 322.813L379.426 322.785L379.657 322.558L379.506 322.578ZM812.349 378.094L807.465 396.084L791.523 389.585L793.739 373.172L812.349 378.094ZM804.684 406.329L790.068 400.37L788.099 414.964L800.432 421.992L804.684 406.329ZM783.365 370.428L781.341 385.433L767.876 379.944V366.331L783.365 370.428ZM779.885 396.218L767.876 391.322V403.439L778.122 409.278L779.885 396.218ZM757.237 363.517V375.606L746.64 371.287L745.198 360.333L757.237 363.517ZM757.237 386.984L748.223 383.31L749.495 392.963L757.237 397.375V386.984ZM734.079 357.392L735.3 366.663L726.335 363.008L724.093 354.751L734.079 357.392ZM736.883 378.687L729.807 375.802L731.715 382.83L737.892 386.351L736.883 378.687ZM712.207 351.608L713.929 357.95L708.097 355.572L705.721 349.892L712.207 351.608ZM717.403 370.744L713.831 369.288L715.669 373.686L718.664 375.392L717.403 370.744ZM692.747 346.461L694.185 349.901L689.792 348.11L688.109 345.234L692.747 346.461ZM699.919 363.617L698.53 363.05L699.291 364.352L700.52 365.052L699.919 363.617ZM673.537 341.483L673.684 341.542L673.597 341.395L673.436 341.353L673.537 341.483ZM526.279 281.447L529.993 282.961L533.547 282.021L529.918 279.953L526.279 281.447ZM513.066 287.438L512.371 287.155L511.323 287.584L511.917 287.742L513.066 287.438ZM518.309 273.337L512.367 275.775L505.882 273.132L511.916 269.693L518.309 273.337ZM498.46 281.483L494.244 279.764L490.285 282.02L494.461 283.124L498.46 281.483ZM501.276 263.629L493.477 268.075L485.162 264.684L492.869 258.838L501.276 263.629ZM481.839 274.707L475.405 272.084L469.538 276.533L475.751 278.176L481.839 274.707ZM482.914 253.165L473.822 260.061L462.653 255.508L471.574 246.702L482.914 253.165ZM464.065 267.461L454.496 263.56L447.309 270.654L456.611 273.114L464.065 267.461ZM462.02 241.257L451.989 251.16L439.124 245.915L448.666 233.647L462.02 241.257ZM443.83 259.212L432.407 254.554L424.565 264.637L435.423 267.51L443.83 259.212ZM439.372 228.35L428.942 241.763L412.449 235.039L422.114 218.514L439.372 228.35ZM422.223 250.403L407.074 244.227L399.079 257.897L413.441 261.695L422.223 250.403ZM412.913 213.271L402.543 231.001L383.775 223.349L392.833 201.827L412.913 213.271ZM397.17 240.188L379.689 233.061L372.227 250.795L388.455 255.087L397.17 240.188ZM383.567 196.547L373.97 219.352L350.165 209.646L357.719 181.816L383.567 196.547ZM369.883 229.064L347.384 219.891L341.221 242.594L361.889 248.06L369.883 229.064ZM348.164 176.371L340.232 205.597L312.511 194.296L317.302 158.783L348.164 176.371ZM337.451 215.841L311.056 205.08L307.207 233.598L330.928 239.871L337.451 215.841ZM307.326 153.097L302.327 190.144L266.598 175.577V129.886L307.326 153.097ZM300.872 200.928L266.598 186.955V222.857L296.834 230.854L300.872 200.928ZM213.933 165.484L255.959 182.618V220.043L219.86 210.495L213.933 165.484ZM165.009 206.877L210.228 218.837L215.155 256.256L177.086 251.368L165.009 206.877ZM221.346 221.778L226.071 257.658L255.959 261.495V230.932L221.346 221.778ZM180.072 262.365L216.578 267.053L220.476 296.656H189.38L180.072 262.365ZM227.493 268.455L231.207 296.656H255.959V272.11L227.493 268.455ZM211.486 378.094L230.537 373.056L232.833 390.497L216.655 397.136L211.486 378.094ZM240.907 370.313L243.015 386.318L255.959 381.006V366.331L240.907 370.313ZM219.435 407.377L234.256 401.294L236.034 414.792L223.401 421.991L219.435 407.377ZM244.436 397.115L246.015 409.103L255.959 403.436V392.387L244.436 397.115ZM226.253 432.493L237.518 426.073L239.1 438.083L229.704 445.208L226.253 432.493ZM247.501 420.384L248.857 430.683L255.959 425.296V415.564L247.501 420.384ZM232.681 456.175L240.683 450.105L241.806 458.63L235.135 465.215L232.681 456.175ZM250.441 442.706L251.304 449.255L255.959 444.66V438.521L250.441 442.706ZM238.32 476.947L243.539 471.795L244.483 478.953L240.318 484.308L238.32 476.947ZM253.037 462.421L253.66 467.152L255.959 464.196V459.536L253.037 462.421ZM243.788 497.092L246.425 493.702L246.878 497.143L244.777 500.735L243.788 497.092ZM255.602 481.901L255.638 482.167L255.959 481.618V481.443L255.602 481.901ZM248.666 515.06L249.133 514.262L249.307 515.594L249.006 516.313L248.666 515.06ZM266.598 664.47L269.259 667.097L269.868 671.718L266.598 669.243V664.47ZM266.598 682.521L271.81 686.467L272.602 692.48L266.598 689.058V682.521ZM283.731 695.492L284.204 699.092L288.208 701.373L287.356 698.237L283.731 695.492ZM266.598 701.243L274.337 705.654L275.6 715.247L266.598 711.577V701.243ZM285.94 712.266L286.94 719.87L294.012 722.754L292.122 715.789L285.94 712.266ZM266.598 723.009L277.191 727.328L278.635 738.29L266.598 735.107V723.009ZM288.532 731.951L289.754 741.231L299.745 743.874L297.501 735.608L288.532 731.951ZM266.598 745.997L280.121 749.573L282.037 764.125L266.598 762.142V745.997ZM291.24 752.514L292.953 765.527L306.08 767.212L302.929 755.606L291.24 752.514ZM266.598 772.756L283.458 774.921L285.627 791.385H266.598V772.756ZM294.375 776.324L296.359 791.385H312.642L309.066 778.209L294.375 776.324ZM266.598 801.972H287.021L289.752 822.711L266.598 825.759V801.972ZM297.752 801.972L300.301 821.324L320.063 818.722L315.516 801.972H297.752ZM266.598 836.437L291.135 833.208L294.339 857.54L266.598 864.877V836.437ZM301.683 831.819L304.709 854.797L328.17 848.592L322.861 829.031L301.683 831.819ZM266.598 875.767L295.724 868.064L299.715 898.366L266.598 911.957V875.767ZM306.096 865.321L309.896 894.188L337.475 882.869L330.929 858.753L306.096 865.321ZM266.598 923.337L301.136 909.162L306.016 946.212L266.598 968.677V923.337ZM311.318 904.984L315.999 940.523L348.152 922.199L340.255 893.109L311.318 904.984ZM323.448 997.099L317.491 951.857L351.016 932.752L360.794 968.775L323.448 997.099ZM384.941 1017.09L372.934 972.855L402.453 950.466L417.054 985.388L384.941 1017.09ZM369.944 961.836L398.235 940.377L386.575 912.486L360.57 927.306L369.944 961.836ZM425.223 977.325L411.215 943.821L436.079 924.963L451.522 951.365L425.223 977.325ZM406.997 933.732L430.696 915.758L418.23 894.446L395.894 907.175L406.997 933.732ZM511.917 891.748L497.993 878.005L511.389 867.845L525.392 878.448L511.917 891.748ZM490.382 870.491L502.621 861.208L491.425 852.731L479.358 859.609L490.382 870.491ZM533.005 870.932L520.151 861.2L531.786 852.375L544.478 859.608L533.005 870.932ZM511.383 854.563L521.784 846.674L511.92 841.052L501.432 847.029L511.383 854.563ZM552.304 851.883L540.96 845.417L550.01 838.554L561.19 843.111L552.304 851.883ZM530.956 839.716L538.616 833.909L530.36 830.542L522.61 834.96L530.956 839.716ZM569.386 835.021L559.813 831.118L567.211 825.507L576.528 827.971L569.386 835.021ZM548.419 826.473L554.222 822.071L548.077 820.446L542.054 823.878L548.419 826.473ZM585.229 819.382L577.858 817.433L583.166 813.406L590.349 814.328L585.229 819.382ZM564.868 813.997L568.183 811.482L564.611 811.023L561.129 813.008L564.868 813.997ZM599.865 804.936L595.136 804.328L598.244 801.972H602.868L599.865 804.936ZM580.153 802.405L580.724 801.972H580.495L579.811 802.361L580.153 802.405ZM613.593 791.385H612.202L612.895 790.859L614.314 790.673L613.593 791.385ZM735.626 701.377L736.856 696.841L739.6 694.761L738.964 699.474L735.626 701.377ZM750.603 692.841L751.568 685.683L757.237 681.384V689.06L750.603 692.841ZM753.566 670.881L757.237 668.097V664.47L754 667.665L753.566 670.881ZM767.876 682.996V673.315L774.974 667.932L776.324 678.182L767.876 682.996ZM767.876 660.027L773.384 655.851L772.53 649.374L767.876 653.968V660.027ZM786.306 672.493L784.731 660.532L794.131 653.403L797.57 666.074L786.306 672.493ZM783.14 648.451L791.139 642.385L788.702 633.41L782.027 639.999L783.14 648.451ZM807.124 660.63L803.279 646.465L814.587 637.888L820.829 652.819L807.124 660.63ZM800.288 635.446L810.368 627.8L805.7 616.632L797.404 624.821L800.288 635.446ZM830.148 647.508L823.348 631.243L837.05 620.851L847.017 637.893L830.148 647.508ZM819.13 621.155L831.666 611.647L824.011 598.557L813.868 608.569L819.13 621.155ZM856.218 632.651L845.548 614.406L862.207 601.771L876.99 620.812L856.218 632.651ZM840.164 605.202L855.715 593.408L844.223 578.605L831.788 590.881L840.164 605.202ZM886.283 615.516L870.644 595.372L890.348 580.427L911.397 601.204L886.283 615.516ZM864.151 587.009L882.737 572.913L866.363 556.751L851.811 571.114L864.151 587.009ZM920.951 595.758L898.871 573.964L923.521 555.267L952.931 577.533L920.951 595.758ZM891.259 566.45L914.754 548.63L892.024 531.422L873.899 549.313L891.259 566.45ZM962.938 571.831L932.283 548.622L961.915 526.149L1002.5 549.281L962.938 571.831ZM923.516 541.985L951.912 520.448L920.992 502.827L899.636 523.907L923.516 541.985ZM928.781 495.139L961.041 513.524L998.302 485.264L956.181 468.092L928.781 495.139ZM741.399 680.11L741.597 679.959L741.605 679.9L741.401 680.101L741.399 680.11ZM281.595 679.273L281.787 680.743L282.82 681.524L282.433 680.101L281.595 679.273ZM62.7408 585.064L25.5221 613.293L67.7015 630.489L95.06 603.483L62.7408 585.064ZM70.1707 642.927L38.0312 674.652L83.0335 686.556L105.698 657.411L70.1707 642.927ZM112.448 648.732L78.367 634.837L104.614 608.928L131.491 624.245L112.448 648.732ZM115.881 661.563L94.1576 689.498L128.984 698.709L144.004 673.028L115.881 661.563ZM149.402 663.797L122.632 652.884L140.785 629.542L162.275 641.789L149.402 663.797ZM153.908 677.067L139.607 701.518L167.918 709.006L177.338 686.619L153.908 677.067ZM181.445 676.861L159.308 667.836L171.475 647.032L189.641 657.385L181.445 676.861ZM187.145 690.617L178.255 711.741L201.191 717.807L206.437 698.482L187.145 690.617ZM209.232 688.189L191.251 680.859L198.907 662.665L213.848 671.181L209.232 688.189ZM216.37 702.532L211.485 720.53L230.093 725.451L232.309 709.029L216.37 702.532ZM233.772 698.194L219.165 692.238L223.402 676.626L235.733 683.653L233.772 698.194ZM242.492 713.181L240.466 728.195L255.959 732.293V718.672L242.492 713.181ZM255.959 707.239L243.954 702.345L245.71 689.339L255.959 695.179V707.239ZM309.907 740.666L311.631 747.018L318.113 748.732L315.734 743.041L309.907 740.666ZM309.972 729.26L306.416 727.811L305.172 723.227L308.163 724.93L309.972 729.26ZM329.644 748.713L331.088 752.164L335.728 753.391L334.04 750.505L329.644 748.713ZM325.259 735.492L323.884 734.931L323.312 733.565L324.541 734.265L325.259 735.492ZM476.92 808.755L477.653 809.055L477.312 809.145L476.684 808.786L476.92 808.755ZM493.855 815.66L497.559 817.169L493.975 818.641L490.364 816.583L493.855 815.66ZM511.533 811.435L510.863 811.162L511.917 810.882L512.503 811.037L511.533 811.435ZM511.471 822.842L505.584 825.257L511.92 828.867L517.896 825.461L511.471 822.842ZM529.59 818.797L525.444 817.106L529.366 815.497L533.473 816.583L529.59 818.797ZM571.856 847.46L561.858 857.328L575.199 864.931L584.71 852.701L571.856 847.46ZM591.461 844.021L580.052 839.369L588.415 831.115L599.266 833.985L591.461 844.021ZM594.894 856.853L584.492 870.227L601.753 880.064L611.395 863.58L594.894 856.853ZM616.794 854.349L601.644 848.173L610.39 836.927L624.761 840.728L616.794 854.349ZM683.604 893.019L675.684 922.197L706.537 939.781L711.322 904.319L683.604 893.019ZM712.784 893.484L686.399 882.726L692.906 858.752L716.624 865.025L712.784 893.484ZM721.506 908.471L716.513 945.466L757.237 968.674V923.038L721.506 908.471ZM757.237 911.606L722.967 897.634L726.998 867.769L757.237 875.767V911.606ZM767.876 915.944L809.891 933.072L803.972 888.128L767.876 878.581V915.944ZM813.605 879.786L858.829 891.747L846.751 847.252L808.676 842.363L813.605 879.786ZM797.761 840.961L802.486 876.845L767.876 867.691V837.124L797.761 840.961ZM807.255 831.566L843.765 836.255L834.459 801.972H803.357L807.255 831.566ZM792.626 801.972L796.338 830.164L767.876 826.51V801.972H792.626ZM801.964 791.385H831.585L823.904 763.088L798.674 766.408L801.964 791.385ZM788.125 767.797L791.232 791.385H767.876V770.461L788.125 767.797ZM797.291 755.912L821.105 752.778L815.109 730.69L794.682 736.093L797.291 755.912ZM784.312 738.835L786.743 757.3L767.876 759.784V743.183L784.312 738.835ZM793.296 725.57L812.352 720.53L807.181 701.481L790.998 708.122L793.296 725.57ZM780.817 712.301L782.926 728.313L767.876 732.293V717.612L780.817 712.301ZM789.576 697.325L804.401 691.241L800.434 676.627L787.799 683.828L789.576 697.325ZM777.816 689.517L779.395 701.504L767.876 706.231V695.181L777.816 689.517ZM780.293 626.835L785.518 621.677L783.518 614.308L779.35 619.667L780.293 626.835ZM770.172 631.468L770.797 636.209L767.876 639.092V634.42L770.172 631.468ZM777.408 604.918L780.048 601.524L779.062 597.891L776.957 601.492L777.408 604.918ZM768.197 616.467L768.23 616.719L767.876 617.174V617.015L768.197 616.467ZM756.847 448.793L757.237 449.295V449.032L756.825 448.626L756.847 448.793ZM754.574 431.527L757.237 434.156V429.378L753.964 426.901L754.574 431.527ZM752.022 412.152L757.237 416.1V409.502L751.221 406.075L752.022 412.152ZM739.619 399.462L740.102 403.127L736.48 400.387L735.61 397.177L739.619 399.462ZM743.712 349.05L757.237 352.627V336.476L741.795 334.495L743.712 349.05ZM730.879 333.092L732.593 346.109L720.909 343.019L717.756 331.408L730.879 333.092ZM740.373 323.698L757.237 325.863V307.242H738.207L740.373 323.698ZM727.474 307.242L729.456 322.296L714.771 320.41L711.197 307.242H727.474ZM728.108 230.561L757.237 222.857V186.661L724.117 200.254L728.108 230.561ZM713.936 204.432L717.737 233.304L692.909 239.871L686.361 215.749L713.936 204.432ZM722.695 189.457L757.237 175.281V129.884L717.809 152.354L722.695 189.457ZM707.827 158.043L712.513 193.635L683.581 205.509L675.671 176.369L707.827 158.043ZM706.341 146.763L700.375 101.458L663.026 129.785L672.82 165.866L706.341 146.763ZM650.9 125.757L638.897 81.5377L606.782 113.238L621.377 148.149L650.9 125.757ZM625.575 158.189L653.877 136.724L663.266 171.311L637.257 186.133L625.575 158.189ZM612.616 154.794L598.613 121.302L572.315 147.26L587.752 173.651L612.616 154.794ZM593.11 182.812L616.813 164.834L627.939 191.444L605.603 204.173L593.11 182.812ZM579.255 180.096L564.539 154.937L544.255 174.958L559.737 194.899L579.255 180.096ZM566.199 203.222L584.613 189.257L596.403 209.417L578.797 219.45L566.199 203.222ZM551.3 201.298L536.667 182.449L519.454 199.44L534.355 214.15L551.3 201.298ZM541.931 221.628L557.762 209.621L569.504 224.747L554.026 233.567L541.931 221.628ZM525.833 220.613L511.918 206.878L498.446 220.177L512.439 230.771L525.833 220.613ZM521.166 237.377L533.409 228.092L544.473 239.012L532.407 245.888L521.166 237.377ZM503.678 237.416L490.833 227.692L479.362 239.014L492.043 246.24L503.678 237.416ZM501.999 251.915L512.404 244.022L522.401 251.591L511.916 257.566L501.999 251.915ZM445.965 281.188L438.609 279.242L433.493 284.292L440.659 285.212L445.965 281.188ZM455.571 287.127L458.893 284.607L462.7 285.614L459.223 287.596L455.571 287.127ZM428.691 294.29L423.977 293.684L420.968 296.656H425.571L428.691 294.29ZM443.007 296.656L443.602 296.205L444.023 296.259L443.325 296.656H443.007ZM302.001 390.376L302.583 388.992L301.279 389.736L300.873 391.231L302.001 390.376ZM286.981 401.768L288.228 397.174L284.876 399.083L284.234 403.851L286.981 401.768ZM272.264 412.929L273.238 405.717L266.598 409.5V417.226L272.264 412.929ZM266.598 430.451L270.277 427.661L269.831 430.967L266.598 434.157V430.451ZM220.555 452.148L216.698 437.939L202.985 445.754L209.244 460.726L220.555 452.148ZM213.442 470.767L223.533 463.114L226.434 473.804L218.136 481.995L213.442 470.767ZM200.483 467.372L193.665 451.066L176.791 460.682L186.781 477.762L200.483 467.372ZM192.139 486.924L204.68 477.412L209.968 490.059L199.827 500.068L192.139 486.924ZM124.956 524.654L102.841 502.826L70.8579 521.053L100.307 543.348L124.956 524.654ZM109.033 549.954L132.531 532.133L149.937 549.314L131.815 567.203L109.033 549.954ZM100.271 556.599L124.202 574.717L102.886 595.758L71.9139 578.108L100.271 556.599ZM91.5453 549.993L61.9584 572.433L21.3302 549.28L60.8514 526.756L91.5453 549.993ZM282.245 418.583L282.46 418.42L282.43 418.529L282.226 418.732L282.245 418.583ZM742.044 417.876L742.238 419.351L741.406 418.529L741.017 417.099L742.044 417.876ZM831.581 307.242L824.193 334.46L799.391 331.275L802.635 307.242H831.581ZM791.891 307.242L788.832 329.919L767.876 327.229V307.242H791.891ZM700.164 307.242L703.341 318.942L692.184 317.51L687.891 307.242H700.164ZM676.35 307.242L679.989 315.943L670.246 314.693L665.888 307.242H676.35ZM653.621 307.242L656.983 312.99L650.8 312.196L646.954 307.242H653.621ZM633.55 307.242L635.911 310.284L631.123 309.669L628.664 307.242H633.55ZM613.594 307.242L613.799 307.444L613.699 307.432L613.449 307.242H613.594ZM478.324 289.747L477.764 289.977L476.589 289.825L477.234 289.458L478.324 289.747ZM426.723 276.098L420.157 282.58L411.479 281.465L417.54 273.67L426.723 276.098ZM406.417 270.728L399.284 279.9L387.123 278.338L393.562 267.328L406.417 270.728ZM382.939 264.518L375.713 276.873L361.994 275.111L368.103 260.594L382.939 264.518ZM357.766 257.86L351.094 273.712L333.391 271.438L338.462 252.754L357.766 257.86ZM328.169 250.032L322.73 270.069L302.634 267.489L305.788 244.112L328.169 250.032ZM295.415 241.368L292.073 266.133L266.598 262.862V233.747L295.415 241.368ZM870.799 502.075L885.808 482.775L911.437 497.382L891.108 517.45L870.799 502.075ZM851.362 527.067L864.299 510.433L883.494 524.965L866.363 541.875L851.362 527.067ZM834.475 548.783L844.818 535.484L858.828 549.313L845.273 562.693L834.475 548.783ZM818.888 568.827L827.767 557.409L837.684 570.184L826.271 581.45L818.888 568.827ZM804.817 586.919L811.886 577.829L818.494 589.126L809.466 598.038L804.817 586.919ZM791.695 603.792L797.313 596.569L801.297 606.101L794.219 613.088L791.695 603.792ZM756.515 649.03L757.237 648.102V649.593L756.316 650.503L756.515 649.03ZM672.052 757.638L672.851 756.61L674.312 756.011L673.599 757.228L672.052 757.638ZM659.266 774.079L661.39 771.347L666.064 770.112L664.117 773.44L659.266 774.079ZM645.807 791.385L650.016 785.973L657.351 785.008L653.621 791.385H645.807ZM632.055 809.069L637.574 801.972H647.43L642.494 810.41L632.055 809.069ZM617.414 827.895L624.549 818.72L636.719 820.283L630.277 831.297L617.414 827.895ZM565.067 895.206L577.927 878.67L596.409 889.202L584.356 909.809L565.067 895.206ZM543.506 922.931L558.567 903.563L578.973 919.012L564.539 943.691L543.506 922.931ZM372.877 879.72L382.461 902.646L357.705 916.753L350.182 889.034L372.877 879.72ZM360.806 850.85L368.816 870.007L347.402 878.795L341.222 856.03L360.806 850.85ZM350.182 825.436L356.707 841.044L338.464 845.869L333.513 827.63L350.182 825.436ZM340.371 801.972L345.95 815.315L330.714 817.321L326.548 801.972H340.371ZM331.65 781.11L335.945 791.385H323.674L320.496 779.678L331.65 781.11ZM323.232 760.976L326.96 769.894L317.511 768.68L314.815 758.75L323.232 760.976ZM301.469 708.922L301.474 708.934L301.259 708.811L301.242 708.75L301.469 708.922ZM248.82 582.99L249.195 583.889L249.132 584.363L248.664 583.565L248.82 582.99ZM240.655 563.459L242.131 566.99L241.129 570.681L239.085 567.188L240.655 563.459ZM232.194 543.222L234.929 549.764L232.404 555.764L228.631 549.314L232.194 543.222ZM223.704 522.917L227.08 530.992L222.497 538.827L217.704 530.633L223.704 522.917ZM214.37 500.589L219.015 511.7L211.947 520.79L205.343 509.498L214.37 500.589ZM181.848 422.802L189.57 441.271L171.471 451.587L159.903 431.808L181.848 422.802ZM167.97 389.604L177.787 413.088L154.535 422.631L139.605 397.106L167.97 389.604ZM168.64 260.898L123.264 255.071L140.65 296.656H178.348L168.64 260.898ZM187.638 409.045L178.36 386.856L201.192 380.817L206.728 401.21L187.638 409.045ZM198.89 435.96L191.699 418.759L209.508 411.45L213.848 427.436L198.89 435.96ZM226.52 502.05L222.538 492.525L229.619 485.536L232.14 494.823L226.52 502.05ZM233.81 519.486L231.21 513.266L235.61 507.608L237.242 513.619L233.81 519.486ZM240.717 536.008L238.923 531.716L241.13 527.943L242.299 532.249L240.717 536.008ZM246.674 550.254L246.443 549.702L246.804 548.845L246.93 549.309L246.674 550.254ZM403.973 291.116L410.642 291.972L405.897 296.656H399.665L403.973 291.116ZM381.348 288.211L391.779 289.55L386.252 296.656H376.409L381.348 288.211ZM357.756 285.181L369.938 286.746L364.142 296.656H352.927L357.756 285.181ZM330.607 281.695L346.856 283.782L341.44 296.656H326.546L330.607 281.695ZM301.227 277.922L319.945 280.326L315.513 296.656H298.698L301.227 277.922ZM266.598 273.476L290.666 276.566L287.955 296.656H266.598V273.476ZM644.41 322.785L643.484 321.87L645.064 322.074L645.929 323.187L644.41 322.785ZM662.797 327.649L659.953 323.986L663.695 324.466L666.062 328.512L662.797 327.649ZM680.575 332.35L676.958 326.169L684.678 327.16L687.628 334.216L680.575 332.35ZM700.602 337.647L696.873 328.726L706.326 329.939L709.022 339.875L700.602 337.647ZM767.876 355.441V337.843L787.423 340.353L784.784 359.913L767.876 355.441ZM795.158 362.657L797.984 341.709L821.409 344.717L815.107 367.933L795.158 362.657ZM900.372 390.485L919.756 357.345L965.384 363.204L936.696 400.093L900.372 390.485ZM856.246 465.928L876.514 477.479L862.357 495.684L846.059 483.345L856.246 465.928ZM840.676 492.548L855.857 504.042L843.775 519.578L831.788 507.745L840.676 492.548ZM826.272 517.177L837.231 527.994L827.774 540.152L819.253 529.176L826.272 517.177ZM813.493 539.024L821.066 548.778L813.13 558.983L807.474 549.314L813.493 539.024ZM801.341 559.8L806.129 567.986L800.128 575.702L796.757 567.639L801.341 559.8ZM790.027 579.144L792.623 585.353L788.225 591.008L786.597 585.009L790.027 579.144ZM644.414 775.838L644.505 775.814L644.325 776.044L644.185 776.064L644.414 775.838ZM631.703 788.384L635.074 787.94L632.395 791.385H628.663L631.703 788.384ZM617.939 801.972H624.162L619.86 807.503L613.2 806.649L617.939 801.972ZM603.685 816.041L612.354 817.154L606.29 824.953L597.115 822.526L603.685 816.041ZM554.033 865.053L568.633 873.374L556.625 888.815L541.534 877.39L554.033 865.053ZM533.921 884.904L550.125 897.172L535.918 915.441L519.453 899.186L533.921 884.904ZM457.038 960.796L475.758 992.8L447.099 1029.65L429.625 987.855L457.038 960.796ZM412.885 885.307L391.78 897.335L382.726 875.678L402.505 867.561L412.885 885.307ZM397.137 858.383L378.665 865.964L371.197 848.102L388.454 843.537L397.137 858.383ZM382.938 834.107L367.097 838.296L361.119 823.997L375.887 822.053L382.938 834.107ZM370.089 812.138L356.888 813.876L351.911 801.972H364.142L370.089 812.138ZM357.95 791.385H347.485L343.844 782.676L353.588 783.927L357.95 791.385ZM346.875 772.45L339.155 771.46L336.207 764.408L343.263 766.274L346.875 772.45ZM666.117 181.814L673.654 209.583L650.956 218.899L641.352 195.927L666.117 181.814ZM676.434 219.823L655.017 228.613L663.029 247.774L682.615 242.593L676.434 219.823ZM632.033 201.239L641.107 222.941L621.329 231.058L610.923 213.269L632.033 201.239ZM645.168 232.655L626.696 240.236L635.383 255.086L652.637 250.522L645.168 232.655ZM601.723 218.511L611.436 235.118L595.908 241.49L585.325 227.858L601.723 218.511ZM616.804 244.296L602.609 250.121L611.39 261.433L624.76 257.896L616.804 244.296ZM576.031 233.153L585.743 245.662L571.996 251.305L561.815 241.255L576.031 233.153ZM592.443 254.293L580.139 259.343L588.412 267.509L600.269 264.374L592.443 254.293ZM552.261 246.701L561.351 255.673L550.963 259.936L541.547 252.807L552.261 246.701ZM569.494 263.711L560.711 267.316L568.073 272.889L576.527 270.654L569.494 263.711ZM531.54 258.51L539.59 264.603L530.681 268.26L522.556 263.629L531.54 258.51ZM549.337 271.983L542.29 274.876L548.081 278.177L555.075 276.327L549.337 271.983ZM349.535 342.603L350.982 342.009L351.775 340.988L350.242 341.394L349.535 342.603ZM330.265 350.511L333.393 349.227L335.73 345.232L332.08 346.198L330.265 350.511ZM324.634 364.202L324.477 364.267L324.409 364.427L324.551 364.346L324.634 364.202ZM319.152 349.617L316.378 356.211L309.627 358.981L311.629 351.607L319.152 349.617ZM310.59 369.967L306.151 371.787L305.173 375.389L309.297 373.04L310.59 369.967ZM299.743 354.751L297.212 364.076L289.155 367.382L290.53 357.188L299.743 354.751ZM293.736 376.884L287.529 379.431L286.649 385.946L292.122 382.827L293.736 376.884ZM279.389 360.134L277.78 372.051L266.598 376.64V363.517L279.389 360.134ZM276.155 384.098L266.598 388.021V397.373L275.01 392.579L276.155 384.098ZM25.7171 486.878L68.7811 469.204L95.0526 495.138L61.7189 514.134L25.7171 486.878ZM112.44 601.203L132.731 581.175L153.033 596.545L138.057 615.803L112.44 601.203ZM157.473 556.752L140.344 573.659L159.533 588.187L172.468 571.555L157.473 556.752ZM147.35 621.099L161.475 602.936L177.781 615.28L167.62 632.651L147.35 621.099ZM167.975 594.578L183.164 606.077L192.05 590.883L180.056 579.043L167.975 594.578ZM176.821 637.893L186.282 621.716L200.213 632.262L193.776 647.556L176.821 637.893ZM191.666 612.513L204.451 622.193L210.119 608.72L199.827 598.561L191.666 612.513ZM203.043 652.838L208.926 638.859L220.287 647.46L216.712 660.629L203.043 652.838ZM213.162 628.789L223.276 636.446L226.432 624.822L218.236 616.732L213.162 628.789ZM226.267 666.073L229.438 654.389L238.733 661.426L237.26 672.338L226.267 666.073ZM232.429 643.374L240.358 649.377L241.646 639.839L235.133 633.411L232.429 643.374ZM247.236 678.024L248.48 668.805L255.959 674.466V682.994L247.236 678.024ZM250.106 656.757L255.959 661.187V653.968L251.127 649.198L250.106 656.757ZM410.029 791.175L410.133 791.187L410.393 791.385H410.242L410.029 791.175ZM420.967 801.972H424.377L427.777 804.545L424.069 805.033L420.967 801.972ZM433.614 814.455L439.793 813.642L445.104 817.664L438.606 819.383L433.614 814.455ZM454.734 811.675L458.103 814.225L462.709 813.007L459.314 811.073L454.734 811.675ZM447.306 827.972L455.765 825.734L463.121 831.303L454.335 834.909L447.306 827.972ZM468.762 822.296L474.494 826.636L481.545 823.743L475.761 820.446L468.762 822.296ZM462.478 842.947L472.869 838.683L482.243 845.78L471.531 851.884L462.478 842.947ZM484.243 834.016L492.25 840.077L501.228 834.96L493.154 830.358L484.243 834.016ZM698.882 996.513L662.904 969.276L672.819 932.75L705.01 951.096L698.882 996.513ZM757.237 864.877L728.417 857.255L731.759 832.486L757.237 835.758V864.877ZM718.043 854.511L721.198 831.13L701.104 828.55L695.664 848.592L718.043 854.511ZM757.237 825.143L733.167 822.053L735.877 801.972H757.237V825.143ZM722.606 820.697L725.133 801.972H708.319L703.888 818.293L722.606 820.697ZM757.237 791.385H737.305L739.627 774.179L757.237 771.862V791.385ZM726.561 791.385L728.689 775.619L714.983 777.423L711.193 791.385H726.561ZM757.237 761.184L741.093 763.309L742.919 749.784L757.237 745.997V761.184ZM730.155 764.748L731.778 752.731L720.905 755.606L717.989 766.35L730.155 764.748ZM757.237 735.107L744.443 738.49L746.051 726.569L757.237 721.978V735.107ZM733.302 741.438L734.678 731.237L726.623 734.542L724.09 743.874L733.302 741.438ZM757.237 710.597L747.677 714.521L748.821 706.041L757.237 701.245V710.597ZM736.304 719.189L737.183 712.674L731.713 715.791L730.099 721.735L736.304 719.189ZM775.014 515.632L774.636 514.73L774.701 514.253L775.17 515.055L775.014 515.632ZM779.059 500.731L777.001 497.212L777.597 492.787L780.278 496.24L779.059 500.731ZM783.751 483.446L779.583 478.078L780.415 471.911L785.515 476.946L783.751 483.446ZM770.429 466.288L770.933 462.553L767.876 459.535V462.999L770.429 466.288ZM788.7 465.213L782.186 458.783L783.473 449.242L791.406 455.246L788.7 465.213ZM772.705 449.425L773.726 441.862L767.876 437.434V444.659L772.705 449.425ZM794.395 444.232L785.1 437.194L786.579 426.225L797.582 432.495L794.395 444.232ZM775.351 429.815L776.603 420.539L767.876 415.565V424.155L775.351 429.815ZM767.876 220.043L804.983 210.229L811.148 164.536L767.876 182.295V220.043ZM768.271 482.286L768.445 480.998L767.876 480.265V481.612L768.271 482.286ZM441.916 801.972L442.719 802.579L444.093 802.398L443.344 801.972H441.916ZM360.93 129.345L324.95 102.106L318.822 147.521L351.016 165.868L360.93 129.345ZM267.515 448.129L267.318 449.59L266.598 450.515V449.034L267.515 448.129ZM228.674 735.967L208.727 730.69L202.426 753.902L225.849 756.91L228.674 735.967ZM236.408 758.266L239.047 738.709L255.959 743.182V760.777L236.408 758.266ZM224.44 767.344L199.642 764.159L192.252 791.385H221.196L224.44 767.344ZM231.94 791.385L235.001 768.7L255.959 771.391V791.385H231.94ZM219.767 801.972H189.378L179.819 837.18L215.653 832.465L219.767 801.972ZM226.591 831.025L230.511 801.972H255.959V827.16L226.591 831.025ZM214.186 843.335L176.814 848.254L165.008 891.747L209.232 880.051L214.186 843.335ZM220.373 877.103L225.124 841.895L255.959 837.837V867.691L220.373 877.103ZM218.849 888.397L212.684 934.083L255.959 916.324V878.581L218.849 888.397ZM545.502 808.875L546.525 809.145L547.161 808.783L546.067 808.642L545.502 808.875ZM817.108 697.407L822.645 717.807L845.475 711.768L836.195 689.574L817.108 697.407ZM832.134 679.86L814.328 687.168L809.988 671.182L824.943 662.659L832.134 679.86ZM846.045 685.531L855.865 709.02L884.231 701.517L869.299 675.987L846.045 685.531ZM863.931 666.81L841.984 675.817L834.262 657.348L852.363 647.032L863.931 666.81ZM879.191 671.927L894.855 698.708L930.205 689.358L907.617 660.262L879.191 671.927ZM900.917 651.631L873.824 662.75L861.563 641.789L883.548 629.26L900.917 651.631ZM917.782 656.09L941.326 686.417L985.805 674.652L952.547 641.823L917.782 656.09ZM944.403 633.785L911.081 647.459L892.841 623.964L919.223 608.929L944.403 633.785ZM955.048 629.416L998.115 611.741L962.113 584.485L928.778 603.484L955.048 629.416ZM722.595 389.873L722.559 389.739L722.326 389.606L722.364 389.698L722.595 389.873ZM489.917 213.72L504.383 199.44L487.912 183.181L473.706 201.447L489.917 213.72ZM467.208 209.805L482.304 221.234L469.808 233.568L455.2 225.244L467.208 209.805ZM465.265 195.056L480.325 175.691L459.299 154.938L444.867 179.613L465.265 195.056ZM439.483 188.816L458.766 203.414L445.907 219.948L427.434 209.419L439.483 188.816ZM436.365 173.176L451.523 147.261L426.279 122.344L412.494 155.104L436.365 173.176ZM408.256 165.175L430.982 182.38L418.234 204.176L396.949 192.046L408.256 165.175ZM399.543 158.579L387.683 186.765L360.57 171.313L370.081 136.274L399.543 158.579ZM403.781 148.509L373.072 125.259L384.939 81.5375L418.163 114.332L403.781 148.509ZM511.92 64.9728L535.318 104.977L512.603 134.186L489.125 103.945L511.92 64.9728ZM541.075 114.821L519.302 142.817L537.718 166.536L559.022 145.505L541.075 114.821ZM483.365 113.792L505.894 142.812L486.869 167.276L464.816 145.507L483.365 113.792ZM512.595 151.442L494.456 174.766L511.918 192.002L530.128 174.027L512.595 151.442ZM58.4482 735.415L87.1333 698.53L123.468 708.139L104.086 741.276L58.4482 735.415ZM87.0446 791.385L109.722 752.613L147.525 757.468L133.252 791.385H87.0446ZM115.496 742.74L151.763 747.397L163.794 718.806L134.091 710.95L115.496 742.74ZM144.741 791.385L158.425 758.867L188.98 762.79L181.218 791.385H144.741ZM162.662 748.796L191.764 752.533L198.434 727.967L174.132 721.54L162.662 748.796ZM900.568 843.548L855.196 837.722L845.491 801.972H883.186L900.568 843.548ZM936.794 791.385H890.3L875.624 756.281L913.357 751.314L936.794 791.385ZM878.76 791.385L864.686 757.719L834.556 761.685L842.617 791.385H878.76ZM907.558 741.4L871.392 746.159L859.965 718.826L889.748 710.949L907.558 741.4ZM860.454 747.599L849.574 721.574L825.403 727.967L831.757 751.376L860.454 747.599ZM566.799 137.829L594.211 110.771L576.733 68.9684L548.076 105.818L566.799 137.829ZM448.679 69.1144L476.369 104.781L457.039 137.83L430.703 111.834L448.679 69.1144ZM122.283 844.753L140.286 801.972H178.345L168.379 838.686L122.283 844.753ZM900.371 708.139L918.948 739.9L964.763 733.87L937.219 698.392L900.371 708.139Z" fill="url(#paint1_linear_165_245)"/>
</g>
<defs>
<linearGradient id="paint0_linear_165_245" x1="2908" y1="0.00026182" x2="2908" y2="1099" gradientUnits="userSpaceOnUse">
<stop stop-color="#29DC75"/>
<stop offset="1" stop-color="#6FBDF9"/>
</linearGradient>
<linearGradient id="paint1_linear_165_245" x1="511.917" y1="44" x2="511.917" y2="1054.63" gradientUnits="userSpaceOnUse">
<stop stop-color="#29DC75"/>
<stop offset="1" stop-color="#6FBDF9"/>
</linearGradient>
</defs>
</svg>
