<svg width="1024" height="1011" viewBox="0 0 1024 1011" fill="none" xmlns="http://www.w3.org/2000/svg">
<g clip-path="url(#clip0_159_224)">
<path fill-rule="evenodd" clip-rule="evenodd" d="M505.786 10.4864L511.92 0L518.053 10.4864L542.319 51.9748L572.044 13.7519L579.55 4.10128L584.239 15.3178L602.38 58.7079L635.712 25.8054L644.413 17.2166L647.598 28.949L660.049 74.8185L698.792 45.4348L708.549 38.0347L710.132 50.0581L716.323 97.0737L757.237 73.7571L767.876 67.6935V79.8207V126.914L812.773 108.488L824.147 103.821L822.522 115.868L816.124 163.281L862.01 151.145L873.897 148.001L870.711 159.734L858.461 204.862L906.309 198.565L918.471 196.964L913.714 208.268L895.035 252.656H942.986H955.253L949.061 263.242L925.531 303.473L972.89 309.553L985.084 311.119L977.579 320.771L947.821 359.035L994.507 371.383L1006.39 374.527L997.693 383.116L964.338 416.04L1008.06 433.864L1019.45 438.509L1009.7 445.909L971.044 475.225L1013.14 499.217L1023.83 505.309L1013.2 511.373L972.12 534.782L1009.49 563.073L1019.24 570.453L1007.86 575.12L963.191 593.454L997.691 627.508L1006.39 636.097L994.506 639.241L948.34 651.451L976.925 688.27L984.446 697.957L972.284 699.558L924.747 705.815L949.061 747.385L955.253 757.972H942.986H894.726L912.763 801.114L917.452 812.331L905.258 810.765L858.181 804.72L870.715 850.892L873.9 862.623L862.013 859.48L815.09 847.069L821.231 893.695L822.822 905.777L811.481 901.154L767.876 883.376V930.738V942.923L757.237 936.859L714.987 912.781L708.629 959.893L707.004 971.941L697.256 964.561L659.915 936.291L647.595 981.676L644.409 993.409L635.709 984.82L601.248 950.803L582.605 995.104L577.894 1006.3L570.443 996.704L541.71 959.693L518.053 1000.14L511.92 1010.63L505.786 1000.14L481.514 958.643L451.788 996.867L444.283 1006.52L439.594 995.302L421.456 951.918L388.126 984.819L379.425 993.408L376.24 981.676L363.786 935.793L325.04 965.179L315.283 972.58L313.691 960.499L307.508 913.546L266.598 936.861L255.959 942.925V930.739V883.704L211.058 902.131L199.685 906.798L201.311 894.751L207.708 847.343L161.823 859.479L149.937 862.623L153.121 850.89L165.372 805.76L117.526 812.056L105.364 813.657L110.121 802.354L128.797 757.972H80.8526H68.5857L74.7776 747.385L98.3119 707.147L50.9431 701.066L38.7486 699.5L46.2537 689.849L76.0092 651.587L29.3302 639.241L17.4445 636.098L26.1455 627.509L59.5052 594.579L15.7186 576.727L4.37811 572.104L14.1816 564.67L52.7852 535.391L10.6398 511.372L0 505.308L10.6904 499.216L51.7124 475.837L14.3435 447.546L4.59562 440.166L15.9692 435.499L60.6377 417.166L26.1424 383.116L17.4414 374.527L29.3271 371.383L75.496 359.173L46.9102 322.351L39.3892 312.664L51.551 311.063L99.0885 304.806L74.7776 263.242L68.5857 252.656H80.8526H129.11L111.07 209.506L106.381 198.289L118.574 199.855L165.655 205.9L153.123 159.734L149.938 148.001L161.824 151.145L208.741 163.554L202.593 116.861L201.009 104.838L212.35 109.461L255.959 127.24V79.8225V67.6953L266.598 73.7589L308.846 97.8358L315.202 50.7265L316.828 38.6789L326.577 46.0587L363.919 74.3304L376.239 28.9488L379.423 17.2164L388.125 25.8051L422.586 59.8221L441.23 15.5181L445.941 4.32107L453.392 13.9174L482.128 50.9333L505.786 10.4864ZM110.479 303.307L148.21 298.341L133.536 263.242H87.0446L110.479 303.307ZM159.148 296.902L189.281 292.936L181.22 263.242H145.075L159.148 296.902ZM199.933 291.534L225.158 288.214L221.87 263.242H192.254L199.933 291.534ZM235.707 286.825L255.959 284.16V263.242H232.602L235.707 286.825ZM266.598 282.76L284.205 280.443L286.526 263.242H266.598V282.76ZM295.143 279.003L308.851 277.199L312.64 263.242H297.269L295.143 279.003ZM320.292 275.693L332.417 274.097L336.985 263.242H323.672L320.292 275.693ZM344.579 272.497L353.202 271.362L357.95 263.242H348.472L344.579 272.497ZM366.491 269.612L373.815 268.649L378.019 263.242H370.217L366.491 269.612ZM388.757 266.682L392.138 266.237L395.172 263.242H391.432L388.757 266.682ZM409.527 263.948L410.924 263.764L411.612 263.242H410.243L409.527 263.948ZM546.926 245.865L547.238 245.823L546.599 245.459L546.194 245.566L546.926 245.865ZM564.526 243.548L569.101 242.946L565.735 240.398L561.133 241.615L564.526 243.548ZM584.043 240.98L590.217 240.167L585.228 235.242L578.733 236.959L584.043 240.98ZM603.514 238.417L613.279 237.132L607.283 229.408L597.114 232.098L603.514 238.417ZM625.441 235.531L636.557 234.068L630.276 223.327L618.404 226.467L625.441 235.531ZM647.947 232.569L662.714 230.626L656.738 216.329L640.899 220.518L647.947 232.569ZM673.652 229.186L690.324 226.991L685.374 208.754L667.128 213.58L673.652 229.186ZM700.976 225.59L722.149 222.803L719.123 199.828L695.667 206.031L700.976 225.59ZM732.698 221.414L757.237 218.184V189.747L729.494 197.085L732.698 221.414ZM767.876 216.785L798.707 212.727L803.459 177.522L767.876 186.932V216.785ZM809.646 211.287L847.021 206.368L858.826 162.877L814.6 174.575L809.646 211.287ZM82.5103 368.207L38.0281 379.973L71.2825 412.798L106.05 398.529L82.5103 368.207ZM112.751 407.16L79.426 420.836L104.607 445.692L130.992 430.655L112.751 407.16ZM137.519 439.063L112.395 453.381L133.478 474.191L153.186 459.243L137.519 439.063ZM159.648 467.567L141.054 481.669L157.473 497.876L172.026 483.51L159.648 467.567ZM178.564 491.933L165.008 505.314L179.013 519.138L189.358 505.836L178.564 491.933ZM196.058 514.467L186.6 526.628L197.566 537.453L204.586 525.45L196.058 514.467ZM211.581 534.462L205.343 545.129L214.542 554.21L218.89 543.877L211.581 534.462ZM226.341 553.472L222.659 562.222L229.617 569.09L231.909 560.646L226.341 553.472ZM240.083 571.174L238.318 577.679L243.417 582.712L244.25 576.541L240.083 571.174ZM253.402 588.33L252.898 592.07L255.959 595.092V591.622L253.402 588.33ZM266.598 605.328V605.594L267.008 605.998L266.984 605.825L266.598 605.328ZM350.291 713.13L350.148 713.072L350.24 713.229L350.401 713.272L350.291 713.13ZM361.04 726.976L357.775 726.112L360.139 730.154L363.88 730.634L361.04 726.976ZM373.033 742.423L366.851 741.629L370.217 747.385H376.885L373.033 742.423ZM385.103 757.972H376.409L381.479 766.639L390.873 765.403L385.103 757.972ZM398.394 775.091L387.277 776.554L393.561 787.296L405.432 784.157L398.394 775.091ZM412.446 793.191L399.077 796.727L407.03 810.323L421.224 804.498L412.446 793.191ZM427.925 813.129L412.398 819.501L422.085 836.064L438.477 826.722L427.925 813.129ZM445.035 835.17L427.431 845.202L439.193 865.313L457.6 851.353L445.035 835.17ZM464.093 859.716L444.577 874.518L459.298 899.688L479.581 879.667L464.093 859.716ZM486.12 888.089L464.814 909.12L482.758 939.797L504.53 911.802L486.12 888.089ZM511.23 920.432L488.516 949.64L511.92 989.654L534.714 950.682L511.23 920.432ZM605.67 940.293L638.893 973.087L650.763 929.362L620.054 906.113L605.67 940.293ZM624.292 896.042L653.753 918.347L663.265 883.305L636.154 867.854L624.292 896.042ZM640.289 858.026L666.129 872.752L673.671 844.97L649.867 835.265L640.289 858.026ZM653.974 825.506L676.466 834.676L682.613 812.03L661.946 806.563L653.974 825.506ZM666.069 796.763L685.37 801.869L690.444 783.181L672.742 780.908L666.069 796.763ZM676.978 770.838L693.228 772.924L697.287 757.972H682.394L676.978 770.838ZM686.848 747.385H700.161L703.542 734.928L691.418 736.525L686.848 747.385ZM696.175 725.221L706.547 723.855L709.019 714.75L699.524 717.262L696.175 725.221ZM704.681 705.008L712.204 703.018L714.208 695.638L707.458 698.407L704.681 705.008ZM713.247 684.651L717.684 682.83L718.662 679.229L714.54 681.578L713.247 684.651ZM721.286 665.548L722.574 664.815L722.964 663.378L721.841 664.231L721.286 665.548ZM774.525 539.031L774.702 540.373L775.173 539.567L774.83 538.306L774.525 539.031ZM781.537 522.369L782.709 526.684L784.913 522.914L783.116 518.616L781.537 522.369ZM788.906 504.86L791.643 511.407L795.207 505.314L791.431 498.857L788.906 504.86ZM796.564 486.659L801.341 494.827L806.497 486.012L800.232 477.943L796.564 486.659ZM804.944 466.745L812.257 476.165L818.495 465.499L809.291 456.415L804.944 466.745ZM813.714 445.905L824.011 456.069L832.174 442.112L819.384 432.429L813.714 445.905ZM823.622 422.359L837.557 432.908L847.046 416.684L830.08 407.015L823.622 422.359ZM834.196 397.234L852.366 407.59L864.561 386.74L842.411 377.71L834.196 397.234ZM846.499 367.998L869.935 377.552L884.233 353.107L855.916 345.617L846.499 367.998ZM860.039 335.818L889.749 343.675L908.346 311.88L872.073 307.222L860.039 335.818ZM876.31 297.152L914.121 302.007L936.794 263.242H890.58L876.31 297.152ZM985.807 379.972L953.673 411.692L918.137 397.204L940.797 368.068L985.807 379.972ZM945.515 419.744L911.419 405.843L892.343 430.373L919.227 445.693L945.515 419.744ZM929.672 365.126L907.954 393.052L879.839 381.591L894.856 355.916L929.672 365.126ZM901.235 401.691L874.466 390.777L861.566 412.833L883.05 425.076L901.235 401.691ZM845.578 342.883L836.692 363.999L817.399 356.134L822.643 336.817L845.578 342.883ZM849.702 333.084L861.173 305.823L832.069 302.086L825.4 326.656L849.702 333.084ZM865.411 295.753L879.092 263.242H842.614L834.854 291.83L865.411 295.753ZM883.547 252.656L901.552 209.869L855.455 215.936L845.487 252.656H883.547ZM844.014 217.441L808.179 222.157L804.063 252.656H834.455L844.014 217.441ZM797.241 223.597L767.876 227.462V252.656H793.319L797.241 223.597ZM757.237 228.863L734.08 231.911L736.812 252.656H757.237V228.863ZM723.532 233.299L703.774 235.899L708.323 252.656H726.081L723.532 233.299ZM693.123 237.301L677.884 239.306L683.464 252.656H697.291L693.123 237.301ZM666.946 240.746L653.746 242.483L659.696 252.656H671.925L666.946 240.746ZM642.356 243.982L632.962 245.219L638.736 252.656H647.43L642.356 243.982ZM620.8 246.82L613.059 247.838L617.94 252.656H625.331L620.8 246.82ZM599.762 249.589L596.058 250.076L599.466 252.656H602.869L599.762 249.589ZM581.116 252.043L579.746 252.223L580.506 252.656H581.926L581.116 252.043ZM496.022 263.242L462.866 267.606L434.532 275.1L401.269 288.751L377.722 302.172L347.866 324.815L329.282 343.159L305.855 373.282L292.708 395.76L278.598 429.291L271.172 456.649L266.598 490.539V521.4L270.62 551.937L279.593 584.993L290.514 611.116L308.896 642.545L324.852 663.096L352.018 689.912L372.466 705.392L405.421 724.175L430.913 734.567L465.265 743.652L494.33 747.385H527.773L560.989 743.013L589.262 735.535L622.204 722.015L646.05 708.426L676.315 685.471L694.517 667.506L718.019 637.284L731.11 614.903L745.235 581.337L752.658 553.989L757.237 520.058V489.241L753.208 458.651L744.25 425.65L733.315 399.495L714.94 368.079L698.999 347.546L671.796 320.693L651.044 304.982L618.419 286.389L593.358 276.172L558.54 266.963L529.563 263.242H496.022ZM777.032 505.774L777.391 504.92L777.16 504.367L776.906 505.306L777.032 505.774ZM783.18 491.164L784.75 487.433L782.706 483.939L781.703 487.632L783.18 491.164ZM789.883 475.237L792.783 468.346L788.452 462.769L786.594 469.614L789.883 475.237ZM797.494 457.149L801.175 448.403L794.216 441.535L791.925 449.975L797.494 457.149ZM805.597 437.893L810.672 425.833L800.557 418.175L797.401 429.802L805.597 437.893ZM814.91 415.762L820.813 401.734L807.135 393.94L803.547 407.16L814.91 415.762ZM824.929 391.953L832.605 373.711L814.618 366.378L809.987 383.438L824.929 391.953ZM699.428 690.19L699.298 690.264L699.212 690.411L699.36 690.35L699.428 690.19ZM693.572 704.106L690.453 705.386L688.111 709.39L691.754 708.426L693.572 704.106ZM686.597 720.68L680.576 722.273L677.407 727.69L684.013 726.821L686.597 720.68ZM679.256 738.125L670.641 739.259L665.888 747.385H675.359L679.256 738.125ZM670.905 757.972H659.696L653.904 767.875L666.08 769.438L670.905 757.972ZM661.842 779.509L648.13 777.748L640.9 790.107L655.731 794.03L661.842 779.509ZM651.607 803.829L635.384 799.538L626.7 814.386L644.168 821.509L651.607 803.829ZM640.061 831.266L621.3 823.618L610.953 841.308L631.023 852.745L640.061 831.266ZM626.887 862.573L605.609 850.446L592.858 872.245L615.579 889.447L626.887 862.573ZM611.341 899.517L587.475 881.448L572.315 907.368L597.553 932.281L611.341 899.517ZM593.131 942.791L566.799 916.798L547.469 949.846L575.156 985.507L593.131 942.791ZM540.474 940.835L559.022 909.122L536.961 887.346L517.939 911.807L540.474 940.835ZM511.238 903.177L529.374 879.856L511.917 862.624L493.709 880.598L511.238 903.177ZM487.171 872.175L504.382 855.186L489.471 840.468L472.53 853.317L487.171 872.175ZM466.038 844.955L481.859 832.954L469.803 821.054L454.329 829.873L466.038 844.955ZM447.771 821.425L461.978 813.329L451.834 803.316L438.09 808.957L447.771 821.425ZM431.39 800.326L443.691 795.278L435.42 787.115L423.567 790.25L431.39 800.326ZM416.553 781.215L426.72 778.526L420.317 772.205L410.556 773.49L416.553 781.215ZM403.035 763.803L410.771 762.784L405.896 757.972H398.508L403.035 763.803ZM390.289 747.385H395.171L392.705 744.949L387.922 744.335L390.289 747.385ZM378.769 732.546L380.343 732.749L379.421 731.838L377.909 731.438L378.769 732.546ZM255.959 574.356V573.008L255.562 572.33L255.388 573.62L255.959 574.356ZM246.234 561.831L246.832 557.405L244.775 553.889L243.556 558.381L246.234 561.831ZM235.382 547.852L237.241 541.006L233.953 535.384L231.052 542.276L235.382 547.852ZM223.603 532.68L227.271 523.962L222.497 515.8L217.342 524.615L223.603 532.68ZM210.346 515.603L216.364 505.314L210.704 495.636L202.767 505.841L210.346 515.603ZM196.066 497.21L204.946 485.792L197.566 473.176L186.153 484.442L196.066 497.21ZM179.615 476.019L192.05 463.744L183.642 449.369L168.084 461.167L179.615 476.019ZM161.623 452.844L178.284 440.207L167.591 421.925L146.812 433.767L161.623 452.844ZM140.285 425.359L162.271 412.83L150.01 391.868L122.917 402.988L140.285 425.359ZM116.216 394.357L144.642 382.691L128.982 355.915L93.6313 365.265L116.216 394.357ZM86.6171 356.231L123.466 346.485L104.887 314.721L59.0722 320.751L86.6171 356.231ZM116.277 313.222L134.089 343.674L163.87 335.798L152.442 308.462L116.277 313.222ZM163.379 307.022L174.261 333.05L198.435 326.656L192.08 303.245L163.379 307.022ZM202.732 301.843L208.728 323.934L229.15 318.532L226.54 298.71L202.732 301.843ZM237.089 297.322L239.522 315.789L255.959 311.441V294.838L237.089 297.322ZM266.598 293.438V308.627L280.913 304.841L282.738 291.313L266.598 293.438ZM293.676 289.873L292.054 301.894L302.928 299.018L305.846 288.273L293.676 289.873ZM317.286 286.766L314.814 295.875L324.309 293.363L327.66 285.401L317.286 286.766ZM339.822 283.8L337.237 289.944L343.266 288.349L346.435 282.93L339.822 283.8ZM359.725 281.181L357.777 284.511L362.438 283.278L364.564 280.544L359.725 281.181ZM379.506 278.578L379.323 278.813L379.426 278.785L379.657 278.558L379.506 278.578ZM812.349 334.094L807.465 352.084L791.523 345.585L793.739 329.172L812.349 334.094ZM804.684 362.329L790.068 356.37L788.099 370.964L800.432 377.992L804.684 362.329ZM783.365 326.428L781.341 341.433L767.876 335.944V322.331L783.365 326.428ZM779.885 352.218L767.876 347.322V359.439L778.122 365.278L779.885 352.218ZM757.237 319.517V331.606L746.64 327.287L745.198 316.333L757.237 319.517ZM757.237 342.984L748.223 339.31L749.495 348.963L757.237 353.375V342.984ZM734.079 313.392L735.3 322.663L726.335 319.008L724.093 310.751L734.079 313.392ZM736.883 334.687L729.807 331.802L731.715 338.83L737.892 342.351L736.883 334.687ZM712.207 307.608L713.929 313.95L708.097 311.572L705.721 305.892L712.207 307.608ZM717.403 326.744L713.831 325.288L715.669 329.686L718.664 331.392L717.403 326.744ZM692.747 302.461L694.185 305.901L689.792 304.11L688.109 301.234L692.747 302.461ZM699.919 319.617L698.53 319.05L699.291 320.352L700.52 321.052L699.919 319.617ZM673.537 297.483L673.684 297.542L673.597 297.395L673.436 297.353L673.537 297.483ZM526.279 237.447L529.993 238.961L533.547 238.021L529.918 235.953L526.279 237.447ZM513.066 243.438L512.371 243.155L511.323 243.584L511.917 243.742L513.066 243.438ZM518.309 229.337L512.367 231.775L505.882 229.132L511.916 225.693L518.309 229.337ZM498.46 237.483L494.244 235.764L490.285 238.02L494.461 239.124L498.46 237.483ZM501.276 219.629L493.477 224.075L485.162 220.684L492.869 214.838L501.276 219.629ZM481.839 230.707L475.405 228.084L469.538 232.533L475.751 234.176L481.839 230.707ZM482.914 209.165L473.822 216.061L462.653 211.508L471.574 202.702L482.914 209.165ZM464.065 223.461L454.496 219.56L447.309 226.654L456.611 229.114L464.065 223.461ZM462.02 197.257L451.989 207.16L439.124 201.915L448.666 189.647L462.02 197.257ZM443.83 215.212L432.407 210.554L424.565 220.637L435.423 223.51L443.83 215.212ZM439.372 184.35L428.942 197.763L412.449 191.039L422.114 174.514L439.372 184.35ZM422.223 206.403L407.074 200.227L399.079 213.897L413.441 217.695L422.223 206.403ZM412.913 169.271L402.543 187.001L383.775 179.349L392.833 157.827L412.913 169.271ZM397.17 196.188L379.689 189.061L372.227 206.795L388.455 211.087L397.17 196.188ZM383.567 152.547L373.97 175.352L350.165 165.646L357.719 137.816L383.567 152.547ZM369.883 185.064L347.384 175.891L341.221 198.594L361.889 204.06L369.883 185.064ZM348.164 132.371L340.232 161.597L312.511 150.296L317.302 114.783L348.164 132.371ZM337.451 171.841L311.056 161.08L307.207 189.598L330.928 195.871L337.451 171.841ZM307.326 109.097L302.327 146.144L266.598 131.577V85.8861L307.326 109.097ZM300.872 156.928L266.598 142.955V178.857L296.834 186.854L300.872 156.928ZM213.933 121.484L255.959 138.618V176.043L219.86 166.495L213.933 121.484ZM165.009 162.877L210.228 174.837L215.155 212.256L177.086 207.368L165.009 162.877ZM221.346 177.778L226.071 213.658L255.959 217.495V186.932L221.346 177.778ZM180.072 218.365L216.578 223.053L220.476 252.656H189.38L180.072 218.365ZM227.493 224.455L231.207 252.656H255.959V228.11L227.493 224.455ZM211.486 334.094L230.537 329.056L232.833 346.497L216.655 353.136L211.486 334.094ZM240.907 326.313L243.015 342.318L255.959 337.006V322.331L240.907 326.313ZM219.435 363.377L234.256 357.294L236.034 370.792L223.401 377.991L219.435 363.377ZM244.436 353.115L246.015 365.103L255.959 359.436V348.387L244.436 353.115ZM226.253 388.493L237.518 382.073L239.1 394.083L229.704 401.208L226.253 388.493ZM247.501 376.384L248.857 386.683L255.959 381.296V371.564L247.501 376.384ZM232.681 412.175L240.683 406.105L241.806 414.63L235.135 421.215L232.681 412.175ZM250.441 398.706L251.304 405.255L255.959 400.66V394.521L250.441 398.706ZM238.32 432.947L243.539 427.795L244.483 434.953L240.318 440.308L238.32 432.947ZM253.037 418.421L253.66 423.152L255.959 420.196V415.536L253.037 418.421ZM243.788 453.092L246.425 449.702L246.878 453.143L244.777 456.735L243.788 453.092ZM255.602 437.901L255.638 438.167L255.959 437.618V437.443L255.602 437.901ZM248.666 471.06L249.133 470.262L249.307 471.594L249.006 472.313L248.666 471.06ZM266.598 620.47L269.259 623.097L269.868 627.718L266.598 625.243V620.47ZM266.598 638.521L271.81 642.467L272.602 648.48L266.598 645.058V638.521ZM283.731 651.492L284.204 655.092L288.208 657.373L287.356 654.237L283.731 651.492ZM266.598 657.243L274.337 661.654L275.6 671.247L266.598 667.577V657.243ZM285.94 668.266L286.94 675.87L294.012 678.754L292.122 671.789L285.94 668.266ZM266.598 679.009L277.191 683.328L278.635 694.29L266.598 691.107V679.009ZM288.532 687.951L289.754 697.231L299.745 699.874L297.501 691.608L288.532 687.951ZM266.598 701.997L280.121 705.573L282.037 720.125L266.598 718.142V701.997ZM291.24 708.514L292.953 721.527L306.08 723.212L302.929 711.606L291.24 708.514ZM266.598 728.756L283.458 730.921L285.627 747.385H266.598V728.756ZM294.375 732.324L296.359 747.385H312.642L309.066 734.209L294.375 732.324ZM266.598 757.972H287.021L289.752 778.711L266.598 781.759V757.972ZM297.752 757.972L300.301 777.324L320.063 774.722L315.516 757.972H297.752ZM266.598 792.437L291.135 789.208L294.339 813.54L266.598 820.877V792.437ZM301.683 787.819L304.709 810.797L328.17 804.592L322.861 785.031L301.683 787.819ZM266.598 831.767L295.724 824.064L299.715 854.366L266.598 867.957V831.767ZM306.096 821.321L309.896 850.188L337.475 838.869L330.929 814.753L306.096 821.321ZM266.598 879.337L301.136 865.162L306.016 902.212L266.598 924.677V879.337ZM311.318 860.984L315.999 896.523L348.152 878.199L340.255 849.109L311.318 860.984ZM323.448 953.099L317.491 907.857L351.016 888.752L360.794 924.775L323.448 953.099ZM384.941 973.087L372.934 928.855L402.453 906.466L417.054 941.388L384.941 973.087ZM369.944 917.836L398.235 896.377L386.575 868.486L360.57 883.306L369.944 917.836ZM425.223 933.325L411.215 899.821L436.079 880.963L451.522 907.365L425.223 933.325ZM406.997 889.732L430.696 871.758L418.23 850.446L395.894 863.175L406.997 889.732ZM511.917 847.748L497.993 834.005L511.389 823.845L525.392 834.448L511.917 847.748ZM490.382 826.491L502.621 817.208L491.425 808.731L479.358 815.609L490.382 826.491ZM533.005 826.932L520.151 817.2L531.786 808.375L544.478 815.608L533.005 826.932ZM511.383 810.563L521.784 802.674L511.92 797.052L501.432 803.029L511.383 810.563ZM552.304 807.883L540.96 801.417L550.01 794.554L561.19 799.111L552.304 807.883ZM530.956 795.716L538.616 789.909L530.36 786.542L522.61 790.96L530.956 795.716ZM569.386 791.021L559.813 787.118L567.211 781.507L576.528 783.971L569.386 791.021ZM548.419 782.473L554.222 778.071L548.077 776.446L542.054 779.878L548.419 782.473ZM585.229 775.382L577.858 773.433L583.166 769.406L590.349 770.328L585.229 775.382ZM564.868 769.997L568.183 767.482L564.611 767.023L561.129 769.008L564.868 769.997ZM599.865 760.936L595.136 760.328L598.244 757.972H602.868L599.865 760.936ZM580.153 758.405L580.724 757.972H580.495L579.811 758.361L580.153 758.405ZM613.593 747.385H612.202L612.895 746.859L614.314 746.673L613.593 747.385ZM735.626 657.377L736.856 652.841L739.6 650.761L738.964 655.474L735.626 657.377ZM750.603 648.841L751.568 641.683L757.237 637.384V645.06L750.603 648.841ZM753.566 626.881L757.237 624.097V620.47L754 623.665L753.566 626.881ZM767.876 638.996V629.315L774.974 623.932L776.324 634.182L767.876 638.996ZM767.876 616.027L773.384 611.851L772.53 605.374L767.876 609.968V616.027ZM786.306 628.493L784.731 616.532L794.131 609.403L797.57 622.074L786.306 628.493ZM783.14 604.451L791.139 598.385L788.702 589.41L782.027 595.999L783.14 604.451ZM807.124 616.63L803.279 602.465L814.587 593.888L820.829 608.819L807.124 616.63ZM800.288 591.446L810.368 583.8L805.7 572.632L797.404 580.821L800.288 591.446ZM830.148 603.508L823.348 587.243L837.05 576.851L847.017 593.893L830.148 603.508ZM819.13 577.155L831.666 567.647L824.011 554.557L813.868 564.569L819.13 577.155ZM856.218 588.651L845.548 570.406L862.207 557.771L876.99 576.812L856.218 588.651ZM840.164 561.202L855.715 549.408L844.223 534.605L831.788 546.881L840.164 561.202ZM886.283 571.516L870.644 551.372L890.348 536.427L911.397 557.204L886.283 571.516ZM864.151 543.009L882.737 528.913L866.363 512.751L851.811 527.114L864.151 543.009ZM920.951 551.758L898.871 529.964L923.521 511.267L952.931 533.533L920.951 551.758ZM891.259 522.45L914.754 504.63L892.024 487.422L873.899 505.313L891.259 522.45ZM962.938 527.831L932.283 504.622L961.915 482.149L1002.5 505.281L962.938 527.831ZM923.516 497.985L951.912 476.448L920.992 458.827L899.636 479.907L923.516 497.985ZM928.781 451.139L961.041 469.524L998.302 441.264L956.181 424.092L928.781 451.139ZM741.399 636.11L741.597 635.959L741.605 635.9L741.401 636.101L741.399 636.11ZM281.595 635.273L281.787 636.743L282.82 637.524L282.433 636.101L281.595 635.273ZM62.7408 541.064L25.5221 569.293L67.7015 586.489L95.06 559.483L62.7408 541.064ZM70.1707 598.927L38.0312 630.652L83.0335 642.556L105.698 613.411L70.1707 598.927ZM112.448 604.732L78.367 590.837L104.614 564.928L131.491 580.245L112.448 604.732ZM115.881 617.563L94.1576 645.498L128.984 654.709L144.004 629.028L115.881 617.563ZM149.402 619.797L122.632 608.884L140.785 585.542L162.275 597.789L149.402 619.797ZM153.908 633.067L139.607 657.518L167.918 665.006L177.338 642.619L153.908 633.067ZM181.445 632.861L159.308 623.836L171.475 603.032L189.641 613.385L181.445 632.861ZM187.145 646.617L178.255 667.741L201.191 673.807L206.437 654.482L187.145 646.617ZM209.232 644.189L191.251 636.859L198.907 618.665L213.848 627.181L209.232 644.189ZM216.37 658.532L211.485 676.53L230.093 681.451L232.309 665.029L216.37 658.532ZM233.772 654.194L219.165 648.238L223.402 632.626L235.733 639.653L233.772 654.194ZM242.492 669.181L240.466 684.195L255.959 688.293V674.672L242.492 669.181ZM255.959 663.239L243.954 658.345L245.71 645.339L255.959 651.179V663.239ZM309.907 696.666L311.631 703.018L318.113 704.732L315.734 699.041L309.907 696.666ZM309.972 685.26L306.416 683.811L305.172 679.227L308.163 680.93L309.972 685.26ZM329.644 704.713L331.088 708.164L335.728 709.391L334.04 706.505L329.644 704.713ZM325.259 691.492L323.884 690.931L323.312 689.565L324.541 690.265L325.259 691.492ZM476.92 764.755L477.653 765.055L477.312 765.145L476.684 764.786L476.92 764.755ZM493.855 771.66L497.559 773.169L493.975 774.641L490.364 772.583L493.855 771.66ZM511.533 767.435L510.863 767.162L511.917 766.882L512.503 767.037L511.533 767.435ZM511.471 778.842L505.584 781.257L511.92 784.867L517.896 781.461L511.471 778.842ZM529.59 774.797L525.444 773.106L529.366 771.497L533.473 772.583L529.59 774.797ZM571.856 803.46L561.858 813.328L575.199 820.931L584.71 808.701L571.856 803.46ZM591.461 800.021L580.052 795.369L588.415 787.115L599.266 789.985L591.461 800.021ZM594.894 812.853L584.492 826.227L601.753 836.064L611.395 819.58L594.894 812.853ZM616.794 810.349L601.644 804.173L610.39 792.927L624.761 796.728L616.794 810.349ZM683.604 849.019L675.684 878.197L706.537 895.781L711.322 860.319L683.604 849.019ZM712.784 849.484L686.399 838.726L692.906 814.752L716.624 821.025L712.784 849.484ZM721.506 864.471L716.513 901.466L757.237 924.674V879.038L721.506 864.471ZM757.237 867.606L722.967 853.634L726.998 823.769L757.237 831.767V867.606ZM767.876 871.944L809.891 889.072L803.972 844.128L767.876 834.581V871.944ZM813.605 835.786L858.829 847.747L846.751 803.252L808.676 798.363L813.605 835.786ZM797.761 796.961L802.486 832.845L767.876 823.691V793.124L797.761 796.961ZM807.255 787.566L843.765 792.255L834.459 757.972H803.357L807.255 787.566ZM792.626 757.972L796.338 786.164L767.876 782.51V757.972H792.626ZM801.964 747.385H831.585L823.904 719.088L798.674 722.408L801.964 747.385ZM788.125 723.797L791.232 747.385H767.876V726.461L788.125 723.797ZM797.291 711.912L821.105 708.778L815.109 686.69L794.682 692.093L797.291 711.912ZM784.312 694.835L786.743 713.3L767.876 715.784V699.183L784.312 694.835ZM793.296 681.57L812.352 676.53L807.181 657.481L790.998 664.122L793.296 681.57ZM780.817 668.301L782.926 684.313L767.876 688.293V673.612L780.817 668.301ZM789.576 653.325L804.401 647.241L800.434 632.627L787.799 639.828L789.576 653.325ZM777.816 645.517L779.395 657.504L767.876 662.231V651.181L777.816 645.517ZM780.293 582.835L785.518 577.677L783.518 570.308L779.35 575.667L780.293 582.835ZM770.172 587.468L770.797 592.209L767.876 595.092V590.42L770.172 587.468ZM777.408 560.918L780.048 557.524L779.062 553.891L776.957 557.492L777.408 560.918ZM768.197 572.467L768.23 572.719L767.876 573.174V573.015L768.197 572.467ZM756.847 404.793L757.237 405.295V405.032L756.825 404.626L756.847 404.793ZM754.574 387.527L757.237 390.156V385.378L753.964 382.901L754.574 387.527ZM752.022 368.152L757.237 372.1V365.502L751.221 362.075L752.022 368.152ZM739.619 355.462L740.102 359.127L736.48 356.387L735.61 353.177L739.619 355.462ZM743.712 305.05L757.237 308.627V292.476L741.795 290.495L743.712 305.05ZM730.879 289.092L732.593 302.109L720.909 299.019L717.756 287.408L730.879 289.092ZM740.373 279.698L757.237 281.863V263.242H738.207L740.373 279.698ZM727.474 263.242L729.456 278.296L714.771 276.41L711.197 263.242H727.474ZM728.108 186.561L757.237 178.857V142.661L724.117 156.254L728.108 186.561ZM713.936 160.432L717.737 189.304L692.909 195.871L686.361 171.749L713.936 160.432ZM722.695 145.457L757.237 131.281V85.8843L717.809 108.354L722.695 145.457ZM707.827 114.043L712.513 149.635L683.581 161.509L675.671 132.369L707.827 114.043ZM706.341 102.763L700.375 57.4582L663.026 85.7851L672.82 121.866L706.341 102.763ZM650.9 81.7573L638.897 37.5377L606.782 69.2382L621.377 104.149L650.9 81.7573ZM625.575 114.189L653.877 92.7239L663.266 127.311L637.257 142.133L625.575 114.189ZM612.616 110.794L598.613 77.3016L572.315 103.26L587.752 129.651L612.616 110.794ZM593.11 138.812L616.813 120.834L627.939 147.444L605.603 160.173L593.11 138.812ZM579.255 136.096L564.539 110.937L544.255 130.958L559.737 150.899L579.255 136.096ZM566.199 159.222L584.613 145.257L596.403 165.417L578.797 175.45L566.199 159.222ZM551.3 157.298L536.667 138.449L519.454 155.44L534.355 170.15L551.3 157.298ZM541.931 177.628L557.762 165.621L569.504 180.747L554.026 189.567L541.931 177.628ZM525.833 176.613L511.918 162.878L498.446 176.177L512.439 186.771L525.833 176.613ZM521.166 193.377L533.409 184.092L544.473 195.012L532.407 201.888L521.166 193.377ZM503.678 193.416L490.833 183.692L479.362 195.014L492.043 202.24L503.678 193.416ZM501.999 207.915L512.404 200.022L522.401 207.591L511.916 213.566L501.999 207.915ZM445.965 237.188L438.609 235.242L433.493 240.292L440.659 241.212L445.965 237.188ZM455.571 243.127L458.893 240.607L462.7 241.614L459.223 243.596L455.571 243.127ZM428.691 250.29L423.977 249.684L420.968 252.656H425.571L428.691 250.29ZM443.007 252.656L443.602 252.205L444.023 252.259L443.325 252.656H443.007ZM302.001 346.376L302.583 344.992L301.279 345.736L300.873 347.231L302.001 346.376ZM286.981 357.768L288.228 353.174L284.876 355.083L284.234 359.851L286.981 357.768ZM272.264 368.929L273.238 361.717L266.598 365.5V373.226L272.264 368.929ZM266.598 386.451L270.277 383.661L269.831 386.967L266.598 390.157V386.451ZM220.555 408.148L216.698 393.939L202.985 401.754L209.244 416.726L220.555 408.148ZM213.442 426.767L223.533 419.114L226.434 429.804L218.136 437.995L213.442 426.767ZM200.483 423.372L193.665 407.066L176.791 416.682L186.781 433.762L200.483 423.372ZM192.139 442.924L204.68 433.412L209.968 446.059L199.827 456.068L192.139 442.924ZM124.956 480.654L102.841 458.826L70.8579 477.053L100.307 499.348L124.956 480.654ZM109.033 505.954L132.531 488.133L149.937 505.314L131.815 523.203L109.033 505.954ZM100.271 512.599L124.202 530.717L102.886 551.758L71.9139 534.108L100.271 512.599ZM91.5453 505.993L61.9584 528.433L21.3302 505.28L60.8514 482.756L91.5453 505.993ZM282.245 374.583L282.46 374.42L282.43 374.529L282.226 374.732L282.245 374.583ZM742.044 373.876L742.238 375.351L741.406 374.529L741.017 373.099L742.044 373.876ZM831.581 263.242L824.193 290.46L799.391 287.275L802.635 263.242H831.581ZM791.891 263.242L788.832 285.919L767.876 283.229V263.242H791.891ZM700.164 263.242L703.341 274.942L692.184 273.51L687.891 263.242H700.164ZM676.35 263.242L679.989 271.943L670.246 270.693L665.888 263.242H676.35ZM653.621 263.242L656.983 268.99L650.8 268.196L646.954 263.242H653.621ZM633.55 263.242L635.911 266.284L631.123 265.669L628.664 263.242H633.55ZM613.594 263.242L613.799 263.444L613.699 263.432L613.449 263.242H613.594ZM478.324 245.747L477.764 245.977L476.589 245.825L477.234 245.458L478.324 245.747ZM426.723 232.098L420.157 238.58L411.479 237.465L417.54 229.67L426.723 232.098ZM406.417 226.728L399.284 235.9L387.123 234.338L393.562 223.328L406.417 226.728ZM382.939 220.518L375.713 232.873L361.994 231.111L368.103 216.594L382.939 220.518ZM357.766 213.86L351.094 229.712L333.391 227.438L338.462 208.754L357.766 213.86ZM328.169 206.032L322.73 226.069L302.634 223.489L305.788 200.112L328.169 206.032ZM295.415 197.368L292.073 222.133L266.598 218.862V189.747L295.415 197.368ZM870.799 458.075L885.808 438.775L911.437 453.382L891.108 473.45L870.799 458.075ZM851.362 483.067L864.299 466.433L883.494 480.965L866.363 497.875L851.362 483.067ZM834.475 504.783L844.818 491.484L858.828 505.313L845.273 518.693L834.475 504.783ZM818.888 524.827L827.767 513.409L837.684 526.184L826.271 537.45L818.888 524.827ZM804.817 542.919L811.886 533.829L818.494 545.126L809.466 554.038L804.817 542.919ZM791.695 559.792L797.313 552.569L801.297 562.101L794.219 569.088L791.695 559.792ZM756.515 605.03L757.237 604.102V605.593L756.316 606.503L756.515 605.03ZM672.052 713.638L672.851 712.61L674.312 712.011L673.599 713.228L672.052 713.638ZM659.266 730.079L661.39 727.347L666.064 726.112L664.117 729.44L659.266 730.079ZM645.807 747.385L650.016 741.973L657.351 741.008L653.621 747.385H645.807ZM632.055 765.069L637.574 757.972H647.43L642.494 766.41L632.055 765.069ZM617.414 783.895L624.549 774.72L636.719 776.283L630.277 787.297L617.414 783.895ZM565.067 851.206L577.927 834.67L596.409 845.202L584.356 865.809L565.067 851.206ZM543.506 878.931L558.567 859.563L578.973 875.012L564.539 899.691L543.506 878.931ZM372.877 835.72L382.461 858.646L357.705 872.753L350.182 845.034L372.877 835.72ZM360.806 806.85L368.816 826.007L347.402 834.795L341.222 812.03L360.806 806.85ZM350.182 781.436L356.707 797.044L338.464 801.869L333.513 783.63L350.182 781.436ZM340.371 757.972L345.95 771.315L330.714 773.321L326.548 757.972H340.371ZM331.65 737.11L335.945 747.385H323.674L320.496 735.678L331.65 737.11ZM323.232 716.976L326.96 725.894L317.511 724.68L314.815 714.75L323.232 716.976ZM301.469 664.922L301.474 664.934L301.259 664.811L301.242 664.75L301.469 664.922ZM248.82 538.99L249.195 539.889L249.132 540.363L248.664 539.565L248.82 538.99ZM240.655 519.459L242.131 522.99L241.129 526.681L239.085 523.188L240.655 519.459ZM232.194 499.222L234.929 505.764L232.404 511.764L228.631 505.314L232.194 499.222ZM223.704 478.917L227.08 486.992L222.497 494.827L217.704 486.633L223.704 478.917ZM214.37 456.589L219.015 467.7L211.947 476.79L205.343 465.498L214.37 456.589ZM181.848 378.802L189.57 397.271L171.471 407.587L159.903 387.808L181.848 378.802ZM167.97 345.604L177.787 369.088L154.535 378.631L139.605 353.106L167.97 345.604ZM168.64 216.898L123.264 211.071L140.65 252.656H178.348L168.64 216.898ZM187.638 365.045L178.36 342.856L201.192 336.817L206.728 357.21L187.638 365.045ZM198.89 391.96L191.699 374.759L209.508 367.45L213.848 383.436L198.89 391.96ZM226.52 458.05L222.538 448.525L229.619 441.536L232.14 450.823L226.52 458.05ZM233.81 475.486L231.21 469.266L235.61 463.608L237.242 469.619L233.81 475.486ZM240.717 492.008L238.923 487.716L241.13 483.943L242.299 488.249L240.717 492.008ZM246.674 506.254L246.443 505.702L246.804 504.845L246.93 505.309L246.674 506.254ZM403.973 247.116L410.642 247.972L405.897 252.656H399.665L403.973 247.116ZM381.348 244.211L391.779 245.55L386.252 252.656H376.409L381.348 244.211ZM357.756 241.181L369.938 242.746L364.142 252.656H352.927L357.756 241.181ZM330.607 237.695L346.856 239.782L341.44 252.656H326.546L330.607 237.695ZM301.227 233.922L319.945 236.326L315.513 252.656H298.698L301.227 233.922ZM266.598 229.476L290.666 232.566L287.955 252.656H266.598V229.476ZM644.41 278.785L643.484 277.87L645.064 278.074L645.929 279.187L644.41 278.785ZM662.797 283.649L659.953 279.986L663.695 280.466L666.062 284.512L662.797 283.649ZM680.575 288.35L676.958 282.169L684.678 283.16L687.628 290.216L680.575 288.35ZM700.602 293.647L696.873 284.726L706.326 285.939L709.022 295.875L700.602 293.647ZM767.876 311.441V293.843L787.423 296.353L784.784 315.913L767.876 311.441ZM795.158 318.657L797.984 297.709L821.409 300.717L815.107 323.933L795.158 318.657ZM900.372 346.485L919.756 313.345L965.384 319.204L936.696 356.093L900.372 346.485ZM856.246 421.928L876.514 433.479L862.357 451.684L846.059 439.345L856.246 421.928ZM840.676 448.548L855.857 460.042L843.775 475.578L831.788 463.745L840.676 448.548ZM826.272 473.177L837.231 483.994L827.774 496.152L819.253 485.176L826.272 473.177ZM813.493 495.024L821.066 504.778L813.13 514.983L807.474 505.314L813.493 495.024ZM801.341 515.8L806.129 523.986L800.128 531.702L796.757 523.639L801.341 515.8ZM790.027 535.144L792.623 541.353L788.225 547.008L786.597 541.009L790.027 535.144ZM644.414 731.838L644.505 731.814L644.325 732.044L644.185 732.064L644.414 731.838ZM631.703 744.384L635.074 743.94L632.395 747.385H628.663L631.703 744.384ZM617.939 757.972H624.162L619.86 763.503L613.2 762.649L617.939 757.972ZM603.685 772.041L612.354 773.154L606.29 780.953L597.115 778.526L603.685 772.041ZM554.033 821.053L568.633 829.374L556.625 844.815L541.534 833.39L554.033 821.053ZM533.921 840.904L550.125 853.172L535.918 871.441L519.453 855.186L533.921 840.904ZM457.038 916.796L475.758 948.8L447.099 985.651L429.625 943.855L457.038 916.796ZM412.885 841.307L391.78 853.335L382.726 831.678L402.505 823.561L412.885 841.307ZM397.137 814.383L378.665 821.964L371.197 804.102L388.454 799.537L397.137 814.383ZM382.938 790.107L367.097 794.296L361.119 779.997L375.887 778.053L382.938 790.107ZM370.089 768.138L356.888 769.876L351.911 757.972H364.142L370.089 768.138ZM357.95 747.385H347.485L343.844 738.676L353.588 739.927L357.95 747.385ZM346.875 728.45L339.155 727.46L336.207 720.408L343.263 722.274L346.875 728.45ZM666.117 137.814L673.654 165.583L650.956 174.899L641.352 151.927L666.117 137.814ZM676.434 175.823L655.017 184.613L663.029 203.774L682.615 198.593L676.434 175.823ZM632.033 157.239L641.107 178.941L621.329 187.058L610.923 169.269L632.033 157.239ZM645.168 188.655L626.696 196.236L635.383 211.086L652.637 206.522L645.168 188.655ZM601.723 174.511L611.436 191.118L595.908 197.49L585.325 183.858L601.723 174.511ZM616.804 200.296L602.609 206.121L611.39 217.433L624.76 213.896L616.804 200.296ZM576.031 189.153L585.743 201.662L571.996 207.305L561.815 197.255L576.031 189.153ZM592.443 210.293L580.139 215.343L588.412 223.509L600.269 220.374L592.443 210.293ZM552.261 202.701L561.351 211.673L550.963 215.936L541.547 208.807L552.261 202.701ZM569.494 219.711L560.711 223.316L568.073 228.889L576.527 226.654L569.494 219.711ZM531.54 214.51L539.59 220.603L530.681 224.26L522.556 219.629L531.54 214.51ZM549.337 227.983L542.29 230.876L548.081 234.177L555.075 232.327L549.337 227.983ZM349.535 298.603L350.982 298.009L351.775 296.988L350.242 297.394L349.535 298.603ZM330.265 306.511L333.393 305.227L335.73 301.232L332.08 302.198L330.265 306.511ZM324.634 320.202L324.477 320.267L324.409 320.427L324.551 320.346L324.634 320.202ZM319.152 305.617L316.378 312.211L309.627 314.981L311.629 307.607L319.152 305.617ZM310.59 325.967L306.151 327.787L305.173 331.389L309.297 329.04L310.59 325.967ZM299.743 310.751L297.212 320.076L289.155 323.382L290.53 313.188L299.743 310.751ZM293.736 332.884L287.529 335.431L286.649 341.946L292.122 338.827L293.736 332.884ZM279.389 316.134L277.78 328.051L266.598 332.64V319.517L279.389 316.134ZM276.155 340.098L266.598 344.021V353.373L275.01 348.579L276.155 340.098ZM25.7171 442.878L68.7811 425.204L95.0526 451.138L61.7189 470.134L25.7171 442.878ZM112.44 557.203L132.731 537.175L153.033 552.545L138.057 571.803L112.44 557.203ZM157.473 512.752L140.344 529.659L159.533 544.187L172.468 527.555L157.473 512.752ZM147.35 577.099L161.475 558.936L177.781 571.28L167.62 588.651L147.35 577.099ZM167.975 550.578L183.164 562.077L192.05 546.883L180.056 535.043L167.975 550.578ZM176.821 593.893L186.282 577.716L200.213 588.262L193.776 603.556L176.821 593.893ZM191.666 568.513L204.451 578.193L210.119 564.72L199.827 554.561L191.666 568.513ZM203.043 608.838L208.926 594.859L220.287 603.46L216.712 616.629L203.043 608.838ZM213.162 584.789L223.276 592.446L226.432 580.822L218.236 572.732L213.162 584.789ZM226.267 622.073L229.438 610.389L238.733 617.426L237.26 628.338L226.267 622.073ZM232.429 599.374L240.358 605.377L241.646 595.839L235.133 589.411L232.429 599.374ZM247.236 634.024L248.48 624.805L255.959 630.466V638.994L247.236 634.024ZM250.106 612.757L255.959 617.187V609.968L251.127 605.198L250.106 612.757ZM410.029 747.175L410.133 747.187L410.393 747.385H410.242L410.029 747.175ZM420.967 757.972H424.377L427.777 760.545L424.069 761.033L420.967 757.972ZM433.614 770.455L439.793 769.642L445.104 773.664L438.606 775.383L433.614 770.455ZM454.734 767.675L458.103 770.225L462.709 769.007L459.314 767.073L454.734 767.675ZM447.306 783.972L455.765 781.734L463.121 787.303L454.335 790.909L447.306 783.972ZM468.762 778.296L474.494 782.636L481.545 779.743L475.761 776.446L468.762 778.296ZM462.478 798.947L472.869 794.683L482.243 801.78L471.531 807.884L462.478 798.947ZM484.243 790.016L492.25 796.077L501.228 790.96L493.154 786.358L484.243 790.016ZM698.882 952.513L662.904 925.276L672.819 888.75L705.01 907.096L698.882 952.513ZM757.237 820.877L728.417 813.255L731.759 788.486L757.237 791.758V820.877ZM718.043 810.511L721.198 787.13L701.104 784.55L695.664 804.592L718.043 810.511ZM757.237 781.143L733.167 778.053L735.877 757.972H757.237V781.143ZM722.606 776.697L725.133 757.972H708.319L703.888 774.293L722.606 776.697ZM757.237 747.385H737.305L739.627 730.179L757.237 727.862V747.385ZM726.561 747.385L728.689 731.619L714.983 733.423L711.193 747.385H726.561ZM757.237 717.184L741.093 719.309L742.919 705.784L757.237 701.997V717.184ZM730.155 720.748L731.778 708.731L720.905 711.606L717.989 722.35L730.155 720.748ZM757.237 691.107L744.443 694.49L746.051 682.569L757.237 677.978V691.107ZM733.302 697.438L734.678 687.237L726.623 690.542L724.09 699.874L733.302 697.438ZM757.237 666.597L747.677 670.521L748.821 662.041L757.237 657.245V666.597ZM736.304 675.189L737.183 668.674L731.713 671.791L730.099 677.735L736.304 675.189ZM775.014 471.632L774.636 470.73L774.701 470.253L775.17 471.055L775.014 471.632ZM779.059 456.731L777.001 453.212L777.597 448.787L780.278 452.24L779.059 456.731ZM783.751 439.446L779.583 434.078L780.415 427.911L785.515 432.946L783.751 439.446ZM770.429 422.288L770.933 418.553L767.876 415.535V418.999L770.429 422.288ZM788.7 421.213L782.186 414.783L783.473 405.242L791.406 411.246L788.7 421.213ZM772.705 405.425L773.726 397.862L767.876 393.434V400.659L772.705 405.425ZM794.395 400.232L785.1 393.194L786.579 382.225L797.582 388.495L794.395 400.232ZM775.351 385.815L776.603 376.539L767.876 371.565V380.155L775.351 385.815ZM767.876 176.043L804.983 166.229L811.148 120.536L767.876 138.295V176.043ZM768.271 438.286L768.445 436.998L767.876 436.265V437.612L768.271 438.286ZM441.916 757.972L442.719 758.579L444.093 758.398L443.344 757.972H441.916ZM360.93 85.3452L324.95 58.1064L318.822 103.521L351.016 121.868L360.93 85.3452ZM267.515 404.129L267.318 405.59L266.598 406.515V405.034L267.515 404.129ZM228.674 691.967L208.727 686.69L202.426 709.902L225.849 712.91L228.674 691.967ZM236.408 714.266L239.047 694.709L255.959 699.182V716.777L236.408 714.266ZM224.44 723.344L199.642 720.159L192.252 747.385H221.196L224.44 723.344ZM231.94 747.385L235.001 724.7L255.959 727.391V747.385H231.94ZM219.767 757.972H189.378L179.819 793.18L215.653 788.465L219.767 757.972ZM226.591 787.025L230.511 757.972H255.959V783.16L226.591 787.025ZM214.186 799.335L176.814 804.254L165.008 847.747L209.232 836.051L214.186 799.335ZM220.373 833.103L225.124 797.895L255.959 793.837V823.691L220.373 833.103ZM218.849 844.397L212.684 890.083L255.959 872.324V834.581L218.849 844.397ZM545.502 764.875L546.525 765.145L547.161 764.783L546.067 764.642L545.502 764.875ZM817.108 653.407L822.645 673.807L845.475 667.768L836.195 645.574L817.108 653.407ZM832.134 635.86L814.328 643.168L809.988 627.182L824.943 618.659L832.134 635.86ZM846.045 641.531L855.865 665.02L884.231 657.517L869.299 631.987L846.045 641.531ZM863.931 622.81L841.984 631.817L834.262 613.348L852.363 603.032L863.931 622.81ZM879.191 627.927L894.855 654.708L930.205 645.358L907.617 616.262L879.191 627.927ZM900.917 607.631L873.824 618.75L861.563 597.789L883.548 585.26L900.917 607.631ZM917.782 612.09L941.326 642.417L985.805 630.652L952.547 597.823L917.782 612.09ZM944.403 589.785L911.081 603.459L892.841 579.964L919.223 564.929L944.403 589.785ZM955.048 585.416L998.115 567.741L962.113 540.485L928.778 559.484L955.048 585.416ZM722.595 345.873L722.559 345.739L722.326 345.606L722.364 345.698L722.595 345.873ZM489.917 169.72L504.383 155.44L487.912 139.181L473.706 157.447L489.917 169.72ZM467.208 165.805L482.304 177.234L469.808 189.568L455.2 181.244L467.208 165.805ZM465.265 151.056L480.325 131.691L459.299 110.938L444.867 135.613L465.265 151.056ZM439.483 144.816L458.766 159.414L445.907 175.948L427.434 165.419L439.483 144.816ZM436.365 129.176L451.523 103.261L426.279 78.3445L412.494 111.104L436.365 129.176ZM408.256 121.175L430.982 138.38L418.234 160.176L396.949 148.046L408.256 121.175ZM399.543 114.579L387.683 142.765L360.57 127.313L370.081 92.2737L399.543 114.579ZM403.781 104.509L373.072 81.2589L384.939 37.5375L418.163 70.3324L403.781 104.509ZM511.92 20.9728L535.318 60.9775L512.603 90.1863L489.125 59.9449L511.92 20.9728ZM541.075 70.8207L519.302 98.8168L537.718 122.536L559.022 101.505L541.075 70.8207ZM483.365 69.7921L505.894 98.812L486.869 123.276L464.816 101.507L483.365 69.7921ZM512.595 107.442L494.456 130.766L511.918 148.002L530.128 130.027L512.595 107.442ZM58.4482 691.415L87.1333 654.53L123.468 664.139L104.086 697.276L58.4482 691.415ZM87.0446 747.385L109.722 708.613L147.525 713.468L133.252 747.385H87.0446ZM115.496 698.74L151.763 703.397L163.794 674.806L134.091 666.95L115.496 698.74ZM144.741 747.385L158.425 714.867L188.98 718.79L181.218 747.385H144.741ZM162.662 704.796L191.764 708.533L198.434 683.967L174.132 677.54L162.662 704.796ZM900.568 799.548L855.196 793.722L845.491 757.972H883.186L900.568 799.548ZM936.794 747.385H890.3L875.624 712.281L913.357 707.314L936.794 747.385ZM878.76 747.385L864.686 713.719L834.556 717.685L842.617 747.385H878.76ZM907.558 697.4L871.392 702.159L859.965 674.826L889.748 666.949L907.558 697.4ZM860.454 703.599L849.574 677.574L825.403 683.967L831.757 707.376L860.454 703.599ZM566.799 93.829L594.211 66.7712L576.733 24.9684L548.076 61.8181L566.799 93.829ZM448.679 25.1144L476.369 60.7807L457.039 93.8302L430.703 67.8341L448.679 25.1144ZM122.283 800.753L140.286 757.972H178.345L168.379 794.686L122.283 800.753ZM900.371 664.139L918.948 695.9L964.763 689.87L937.219 654.392L900.371 664.139Z" fill="url(#paint0_linear_159_224)"/>
</g>
<defs>
<linearGradient id="paint0_linear_159_224" x1="511.917" y1="0" x2="511.917" y2="1010.63" gradientUnits="userSpaceOnUse">
<stop stop-color="#29DC75"/>
<stop offset="1" stop-color="#6FBDF9"/>
</linearGradient>
<clipPath id="clip0_159_224">
<rect width="1024" height="1011" fill="white"/>
</clipPath>
</defs>
</svg>
